<?xml version="1.0" standalone="no"?>
<!DOCTYPE svg PUBLIC "-//W3C//DTD SVG 20010904//EN"
 "http://www.w3.org/TR/2001/REC-SVG-20010904/DTD/svg10.dtd">
<svg version="1.0" xmlns="http://www.w3.org/2000/svg"
 width="900.000000pt" height="900.000000pt" viewBox="0 0 900.000000 900.000000"
 preserveAspectRatio="xMidYMid meet">
<metadata>
Created by potrace 1.14, written by Peter Selinger 2001-2017
</metadata>
<g transform="translate(0.000000,900.000000) scale(0.100000,-0.100000)"
fill="#000000" stroke="none">
<path d="M4135 8985 c-892 -82 -1704 -396 -2380 -921 -541 -419 -963 -929
-1264 -1524 -439 -868 -587 -1821 -430 -2775 72 -442 198 -831 404 -1250 322
-654 761 -1183 1350 -1625 925 -694 2132 -1007 3280 -850 1200 164 2279 795
2998 1752 185 246 302 437 442 723 139 282 202 443 281 714 192 662 233 1330
123 2006 -71 437 -200 835 -404 1250 -311 633 -728 1143 -1290 1579 -779 604
-1772 940 -2765 935 -113 -1 -268 -7 -345 -14z m604 -1840 c269 -86 462 -283
542 -552 17 -54 22 -107 26 -260 l5 -193 -806 0 -806 0 0 123 c0 211 25 347
88 472 92 185 260 332 457 401 150 52 348 56 494 9z m-2294 -33 c294 -81 693
-330 920 -574 159 -171 286 -373 329 -522 l12 -41 792 -3 792 -2 17 37 c55
129 99 215 140 277 255 388 779 751 1200 832 240 46 520 -18 730 -166 386
-270 530 -739 364 -1186 -161 -437 -528 -874 -889 -1062 -175 -90 -312 -124
-497 -124 -241 0 -418 55 -631 198 -44 30 -83 54 -87 54 -4 0 -7 -9 -7 -19 0
-11 132 -416 294 -902 l295 -882 68 -69 c167 -169 399 -268 629 -268 133 0
278 43 326 96 51 58 63 172 25 239 -23 41 -73 81 -114 91 -35 9 -71 -20 -98
-79 l-24 -52 5 40 c15 108 42 157 101 181 40 17 99 6 173 -31 131 -67 178
-251 111 -443 -109 -314 -437 -500 -928 -529 -62 -3 -113 -8 -113 -11 0 -3 36
-43 80 -88 l80 -82 0 -136 0 -136 -41 -45 c-23 -25 -45 -45 -50 -45 -5 0 -24
17 -44 38 l-34 37 -1 233 0 233 -22 -3 c-23 -3 -23 -5 -28 -206 l-5 -202 -82
82 -82 83 -3 130 c-3 108 -6 130 -18 130 -12 0 -16 -20 -18 -109 l-3 -110 -84
84 c-76 75 -85 89 -85 121 0 41 -23 59 -39 31 -9 -16 -11 -15 -33 5 -13 12
-44 24 -70 28 -46 7 -47 7 -104 -49 l-57 -57 -106 103 c-100 98 -110 105 -191
132 -46 17 -156 65 -244 109 l-159 79 -214 -214 -213 -213 -218 218 -217 217
-145 -73 c-80 -40 -188 -90 -240 -110 -91 -36 -100 -43 -202 -145 l-108 -107
-59 59 c-59 58 -60 59 -106 53 -27 -4 -56 -16 -71 -30 -25 -24 -28 -24 -327
-31 -375 -9 -527 5 -708 64 -325 107 -509 293 -559 568 -19 105 13 226 77 294
34 36 138 81 190 82 76 2 132 -66 140 -168 l4 -51 -15 40 c-16 42 -57 85 -82
85 -23 0 -87 -36 -110 -62 -60 -66 -58 -202 4 -271 76 -85 316 -121 504 -78
183 43 317 119 459 260 l87 86 292 880 c160 484 293 886 295 893 9 26 -45 10
-106 -33 -306 -214 -674 -265 -1006 -140 -363 137 -720 496 -943 950 -80 163
-114 260 -135 391 -19 118 -19 180 0 299 52 321 257 599 550 747 61 31 195 76
261 88 84 15 349 4 429 -18z m545 -5027 l-85 -85 -222 0 c-123 0 -223 3 -223
7 0 4 35 43 77 85 l78 78 230 0 230 0 -85 -85z m3643 -153 l47 -48 -50 -49
-50 -49 0 97 c0 53 1 97 3 97 1 0 24 -22 50 -48z m-3789 21 c3 -4 -28 -42 -71
-85 l-78 -78 -144 0 -145 0 -43 42 -43 42 42 43 42 43 216 0 c119 0 220 -3
224 -7z m3914 -104 c36 -12 62 -48 62 -85 0 -21 -24 -52 -108 -137 -99 -100
-111 -109 -146 -109 -42 0 -68 19 -87 64 -12 30 -12 30 112 154 68 68 126 124
130 124 3 0 20 -5 37 -11z m-4349 -123 c124 -124 124 -124 112 -154 -18 -44
-45 -64 -86 -65 -32 -1 -45 8 -141 104 -57 57 -107 114 -110 127 -13 47 36
110 86 112 8 0 71 -56 139 -124z m225 16 c2 -4 -15 -28 -39 -53 l-43 -46 -47
47 c-32 33 -43 49 -33 53 21 8 156 8 162 -1z"/>
<path d="M2083 7053 c-30 -6 -29 -14 7 -48 l30 -29 35 34 c19 18 32 37 29 42
-5 8 -60 9 -101 1z"/>
<path d="M2237 7054 c-9 -9 51 -74 68 -74 6 0 24 13 39 29 l28 29 -29 6 c-73
14 -99 17 -106 10z"/>
<path d="M1945 7025 c-22 -8 -42 -15 -45 -15 -10 0 115 -120 125 -120 14 0 75
62 75 76 0 6 -15 24 -33 42 -36 35 -61 39 -122 17z"/>
<path d="M2172 7007 c-18 -18 -32 -37 -32 -43 0 -13 63 -74 76 -74 6 0 25 16
44 35 l34 35 -39 40 c-21 22 -42 40 -45 40 -3 0 -20 -15 -38 -33z"/>
<path d="M6660 7029 l-25 -10 33 -30 33 -29 34 33 c19 19 35 37 35 41 0 10
-82 6 -110 -5z"/>
<path d="M6845 7000 l39 -40 28 27 c45 43 37 53 -39 53 l-67 0 39 -40z"/>
<path d="M2350 6995 l-34 -35 34 -35 c19 -19 39 -35 45 -35 13 0 75 62 75 75
0 16 -53 65 -70 65 -9 0 -31 -16 -50 -35z"/>
<path d="M6752 6987 l-43 -44 42 -37 41 -38 39 38 c42 41 41 49 -8 96 l-29 28
-42 -43z"/>
<path d="M6935 6990 l-39 -40 42 -42 42 -43 60 60 c64 64 65 78 7 88 -17 4
-41 9 -52 12 -15 4 -31 -5 -60 -35z"/>
<path d="M6562 6987 c-18 -18 -32 -37 -32 -41 0 -10 66 -76 75 -76 10 0 75 66
75 77 0 12 -63 73 -76 73 -6 0 -24 -15 -42 -33z"/>
<path d="M2470 6995 c7 -8 16 -15 21 -15 5 0 9 7 9 15 0 9 -9 15 -21 15 -18 0
-19 -2 -9 -15z"/>
<path d="M1823 6980 c-24 -11 -43 -23 -43 -29 0 -15 136 -151 151 -151 8 0 30
16 49 35 l34 35 -64 65 c-35 36 -69 65 -75 64 -5 0 -29 -9 -52 -19z"/>
<path d="M6505 6989 c-4 -6 -4 -13 -1 -16 8 -8 36 5 36 17 0 13 -27 13 -35 -1z"/>
<path d="M2520 6975 c-11 -13 -8 -21 20 -50 19 -19 39 -35 45 -35 11 0 55 41
55 52 0 5 -92 48 -103 48 -3 0 -10 -7 -17 -15z"/>
<path d="M7057 6922 l-67 -68 40 -39 40 -39 75 74 c75 74 86 93 63 103 -7 3
-29 12 -49 21 l-36 15 -66 -67z"/>
<path d="M6409 6954 l-53 -25 32 -32 32 -31 35 34 c65 63 39 93 -46 54z"/>
<path d="M2075 6909 l-37 -41 38 -39 c41 -42 49 -42 98 10 l30 31 -39 40 c-22
22 -42 40 -46 40 -4 0 -23 -18 -44 -41z"/>
<path d="M2452 6907 l-43 -44 42 -37 41 -38 42 41 41 41 -40 40 -41 40 -42
-43z"/>
<path d="M1702 6913 c-23 -15 -42 -30 -42 -33 0 -3 41 -46 90 -95 l90 -90 40
41 41 40 -81 82 c-44 45 -84 82 -88 82 -4 0 -27 -12 -50 -27z"/>
<path d="M2260 6905 l-34 -35 34 -35 c19 -19 39 -35 45 -35 6 0 26 16 45 35
l34 35 -34 35 c-19 19 -39 35 -45 35 -6 0 -26 -16 -45 -35z"/>
<path d="M2625 6900 l-29 -30 41 -42 41 -41 36 36 c20 20 36 40 36 45 0 15
-44 50 -70 57 -20 5 -32 -1 -55 -25z"/>
<path d="M6472 6897 c-18 -18 -32 -37 -32 -43 0 -12 62 -74 74 -74 8 0 76 67
76 75 0 7 -73 75 -80 75 -3 0 -20 -15 -38 -33z"/>
<path d="M6655 6890 l-39 -40 37 -35 c20 -19 40 -35 45 -35 11 0 72 64 72 76
0 10 -61 74 -71 74 -3 0 -22 -18 -44 -40z"/>
<path d="M6842 6897 c-18 -18 -32 -37 -32 -43 0 -13 63 -74 76 -74 6 0 25 15
43 34 28 29 31 37 22 54 -11 21 -58 62 -70 62 -4 0 -21 -15 -39 -33z"/>
<path d="M6296 6901 c-50 -33 -52 -49 -15 -87 18 -19 38 -34 44 -34 14 0 75
62 75 76 0 13 -53 64 -66 64 -5 0 -22 -9 -38 -19z"/>
<path d="M7165 6840 l-79 -80 34 -35 c19 -19 39 -35 45 -35 13 0 175 162 175
175 0 12 -65 55 -83 55 -7 0 -48 -36 -92 -80z"/>
<path d="M1592 6831 c-17 -17 -32 -34 -32 -38 0 -12 174 -183 186 -183 13 0
74 63 74 76 0 16 -164 174 -180 174 -9 0 -30 -13 -48 -29z"/>
<path d="M2800 6852 c0 -13 62 -62 71 -56 16 10 9 22 -25 43 -36 23 -46 25
-46 13z"/>
<path d="M1982 6817 c-18 -18 -32 -36 -32 -40 0 -10 67 -77 78 -77 11 0 72 64
72 76 0 13 -63 74 -76 74 -6 0 -24 -15 -42 -33z"/>
<path d="M2172 6817 c-18 -18 -32 -37 -32 -43 0 -6 16 -25 35 -44 l35 -34 42
42 42 42 -34 35 c-19 19 -39 35 -45 35 -6 0 -25 -15 -43 -33z"/>
<path d="M2357 6812 l-37 -38 40 -39 40 -39 35 34 c19 19 35 39 35 45 0 11
-61 75 -71 75 -3 0 -22 -17 -42 -38z"/>
<path d="M2542 6817 c-18 -18 -32 -37 -32 -43 0 -11 62 -74 73 -74 10 0 77 67
77 78 0 11 -64 72 -76 72 -6 0 -24 -15 -42 -33z"/>
<path d="M2732 6817 c-18 -18 -32 -37 -32 -43 0 -6 16 -25 35 -44 l35 -34 40
39 40 40 -35 38 c-19 20 -38 37 -43 37 -4 0 -22 -15 -40 -33z"/>
<path d="M7265 6760 l-90 -90 41 -41 41 -41 96 96 96 96 -37 35 c-20 19 -42
35 -47 35 -6 0 -51 -41 -100 -90z"/>
<path d="M6153 6820 c-18 -11 -33 -24 -33 -30 0 -19 26 -10 55 20 33 35 24 39
-22 10z"/>
<path d="M6196 6807 c-20 -20 -36 -41 -36 -46 0 -16 54 -71 70 -71 9 0 31 16
50 35 l34 35 -41 42 -41 41 -36 -36z"/>
<path d="M6376 6801 l-38 -39 39 -42 39 -42 37 35 c20 19 37 41 37 50 0 12
-62 77 -73 77 -2 0 -20 -18 -41 -39z"/>
<path d="M6565 6800 l-39 -40 34 -35 c19 -19 39 -35 45 -35 11 0 75 61 75 72
0 6 -38 47 -61 65 -13 10 -22 6 -54 -27z"/>
<path d="M6749 6803 l-42 -40 42 -42 43 -43 30 29 c51 48 51 56 8 98 l-38 37
-43 -39z"/>
<path d="M6936 6801 l-38 -39 38 -42 39 -41 39 40 40 41 -20 26 c-11 15 -29
33 -40 40 -18 13 -24 10 -58 -25z"/>
<path d="M2887 6793 c-13 -12 -7 -23 28 -58 38 -38 45 -41 63 -23 20 20 14 34
-28 62 -41 27 -52 30 -63 19z"/>
<path d="M1506 6744 c-20 -21 -36 -42 -36 -46 0 -3 41 -47 92 -98 l92 -91 40
41 41 40 -97 97 -96 96 -36 -39z"/>
<path d="M6047 6754 c-40 -26 -43 -40 -14 -58 14 -9 24 -4 53 26 34 34 39 58
11 58 -7 0 -29 -12 -50 -26z"/>
<path d="M1887 6722 l-37 -38 43 -42 43 -42 37 38 c20 21 37 41 37 45 0 9 -69
77 -78 77 -5 0 -25 -17 -45 -38z"/>
<path d="M2076 6721 l-38 -39 35 -36 c20 -20 40 -36 45 -36 4 0 25 17 45 38
l37 38 -38 37 c-21 20 -40 37 -43 37 -3 0 -22 -18 -43 -39z"/>
<path d="M2265 6720 l-39 -40 34 -35 c19 -19 39 -35 45 -35 14 0 75 62 75 76
0 10 -61 74 -71 74 -3 0 -23 -18 -44 -40z"/>
<path d="M2452 6727 c-18 -18 -32 -37 -32 -43 0 -11 62 -74 73 -74 4 0 24 16
44 36 l35 36 -38 39 c-21 21 -41 39 -44 39 -3 0 -20 -15 -38 -33z"/>
<path d="M2636 6721 l-38 -39 38 -41 37 -42 44 43 43 42 -37 38 c-20 21 -40
38 -43 38 -3 0 -23 -18 -44 -39z"/>
<path d="M2822 6727 c-18 -18 -32 -37 -32 -43 0 -13 63 -74 76 -74 11 0 74 62
74 73 0 9 -69 77 -78 77 -5 0 -22 -15 -40 -33z"/>
<path d="M7367 6672 c-48 -48 -87 -92 -87 -98 0 -5 16 -25 35 -44 l35 -34 90
89 c50 49 90 94 90 100 -1 12 -57 75 -68 75 -4 0 -47 -39 -95 -88z"/>
<path d="M6847 6712 c-20 -21 -37 -42 -37 -46 0 -5 16 -24 37 -43 l36 -35 41
41 41 41 -40 40 -41 40 -37 -38z"/>
<path d="M6091 6704 l-34 -36 40 -40 40 -40 37 32 c20 18 36 37 36 44 0 17
-56 76 -72 76 -7 0 -28 -17 -47 -36z"/>
<path d="M6282 6707 c-18 -18 -32 -36 -32 -40 0 -10 67 -77 76 -77 10 0 74 67
74 78 0 11 -64 72 -76 72 -6 0 -24 -15 -42 -33z"/>
<path d="M6472 6707 c-18 -18 -32 -37 -32 -43 0 -6 16 -26 36 -45 l35 -34 41
43 40 44 -33 34 c-18 19 -38 34 -44 34 -6 0 -25 -15 -43 -33z"/>
<path d="M6650 6705 l-34 -35 42 -42 42 -42 35 34 c19 19 35 39 35 46 0 7 -14
26 -31 43 -17 17 -36 31 -43 31 -7 0 -27 -16 -46 -35z"/>
<path d="M7032 6707 c-18 -18 -32 -37 -32 -43 0 -6 16 -25 35 -44 l35 -34 42
42 42 42 -34 35 c-19 19 -39 35 -45 35 -6 0 -25 -15 -43 -33z"/>
<path d="M2992 6708 c-20 -20 -14 -42 19 -71 37 -32 39 -33 67 -7 30 28 28 33
-16 64 -43 29 -53 31 -70 14z"/>
<path d="M5935 6676 l-40 -35 28 -28 28 -28 40 43 c39 42 40 44 23 63 -23 26
-33 24 -79 -15z"/>
<path d="M1426 6640 c-14 -22 -26 -45 -26 -53 0 -7 36 -48 80 -92 l80 -79 35
34 c19 19 35 40 35 48 0 12 -162 182 -174 182 -2 0 -15 -18 -30 -40z"/>
<path d="M1985 6630 l-39 -40 39 -40 39 -40 38 37 c43 42 45 47 20 71 -59 56
-55 55 -97 12z"/>
<path d="M2358 6632 l-43 -41 42 -42 41 -42 36 35 c20 19 36 42 36 50 0 8 -15
29 -34 47 l-34 33 -44 -40z"/>
<path d="M2545 6630 l-39 -40 39 -40 39 -40 41 40 40 40 -40 40 -41 40 -39
-40z"/>
<path d="M2732 6637 c-18 -18 -32 -40 -32 -48 0 -8 16 -30 35 -49 l35 -34 42
42 42 42 -39 40 c-21 22 -42 40 -45 40 -3 0 -20 -15 -38 -33z"/>
<path d="M1797 6632 c-36 -37 -34 -54 9 -92 l36 -32 34 33 c19 18 34 40 34 48
0 20 -50 71 -70 71 -9 0 -28 -13 -43 -28z"/>
<path d="M2172 6627 c-18 -18 -32 -37 -32 -41 0 -5 16 -25 36 -44 l36 -35 41
41 41 42 -34 35 c-19 19 -39 35 -45 35 -6 0 -25 -15 -43 -33z"/>
<path d="M2917 6632 c-35 -37 -34 -51 7 -91 l34 -33 36 37 c20 19 36 40 36 46
0 13 -61 69 -75 69 -6 0 -23 -13 -38 -28z"/>
<path d="M7452 6577 c-45 -45 -82 -87 -82 -93 0 -13 63 -74 76 -74 5 0 45 35
88 79 l78 79 -27 46 c-15 25 -32 46 -39 46 -6 0 -48 -37 -94 -83z"/>
<path d="M6003 6615 c-18 -19 -33 -38 -33 -43 0 -11 64 -72 76 -72 13 0 74 63
74 76 0 13 -63 74 -75 74 -6 0 -25 -16 -42 -35z"/>
<path d="M6192 6617 c-18 -18 -32 -37 -32 -43 0 -12 62 -74 74 -74 9 0 76 65
76 74 0 8 -70 76 -78 76 -5 0 -22 -15 -40 -33z"/>
<path d="M6376 6611 l-38 -39 35 -36 c20 -20 40 -36 45 -36 11 0 72 64 72 76
0 10 -61 74 -71 74 -3 0 -22 -18 -43 -39z"/>
<path d="M6562 6617 c-18 -18 -32 -37 -32 -43 0 -13 63 -74 76 -74 13 0 74 63
74 76 0 13 -63 74 -76 74 -6 0 -24 -15 -42 -33z"/>
<path d="M6752 6617 c-18 -18 -32 -37 -32 -43 0 -6 16 -25 35 -44 l35 -34 35
34 c19 19 35 39 35 46 0 13 -57 74 -69 74 -4 0 -21 -15 -39 -33z"/>
<path d="M6937 6612 l-38 -38 36 -37 c20 -20 39 -37 44 -37 11 0 71 64 71 76
0 10 -61 74 -71 74 -3 0 -22 -17 -42 -38z"/>
<path d="M7122 6617 c-18 -18 -32 -37 -32 -43 0 -11 62 -74 73 -74 9 0 77 69
77 78 0 12 -64 72 -76 72 -6 0 -24 -15 -42 -33z"/>
<path d="M3088 6619 c-25 -27 -23 -37 18 -77 l36 -35 31 31 31 32 -34 35 c-38
39 -57 42 -82 14z"/>
<path d="M5836 6594 l-39 -36 31 -31 32 -31 35 34 c19 19 35 39 35 45 0 11
-41 55 -51 55 -2 0 -22 -16 -43 -36z"/>
<path d="M1701 6535 c-17 -20 -31 -38 -31 -40 0 -8 70 -75 78 -75 12 0 72 64
72 76 0 13 -63 74 -77 74 -6 0 -25 -16 -42 -35z"/>
<path d="M1892 6537 c-18 -18 -32 -38 -32 -44 0 -6 16 -25 36 -43 l37 -32 41
41 40 41 -34 35 c-19 19 -39 35 -45 35 -6 0 -25 -15 -43 -33z"/>
<path d="M2082 6537 c-18 -18 -32 -37 -32 -43 0 -6 16 -25 35 -44 l35 -34 41
40 41 41 -38 37 c-20 20 -40 36 -44 36 -3 0 -20 -15 -38 -33z"/>
<path d="M2262 6537 c-18 -18 -32 -37 -32 -41 0 -10 68 -76 79 -76 11 0 71 64
71 76 0 13 -63 74 -76 74 -6 0 -24 -15 -42 -33z"/>
<path d="M2452 6537 c-18 -18 -32 -37 -32 -43 0 -6 16 -25 35 -44 l35 -34 41
40 41 41 -32 37 c-18 20 -37 36 -44 36 -7 0 -26 -15 -44 -33z"/>
<path d="M2630 6534 l-32 -37 41 -41 41 -40 40 39 40 39 -37 38 c-20 21 -42
38 -49 38 -7 0 -26 -16 -44 -36z"/>
<path d="M2822 6537 c-18 -18 -32 -37 -32 -43 0 -11 62 -74 73 -74 9 0 77 69
77 78 0 12 -64 72 -76 72 -6 0 -24 -15 -42 -33z"/>
<path d="M3012 6541 c-17 -17 -32 -36 -32 -43 0 -8 16 -29 35 -48 l35 -34 41
40 41 41 -38 37 c-20 20 -40 36 -43 36 -4 0 -21 -13 -39 -29z"/>
<path d="M1360 6520 c-11 -21 -20 -47 -20 -57 0 -19 108 -133 126 -133 12 0
74 62 74 75 0 11 -141 155 -152 155 -4 0 -17 -18 -28 -40z"/>
<path d="M3186 6532 c-14 -16 -26 -31 -26 -35 0 -9 69 -77 78 -77 5 0 21 13
36 29 l27 28 -27 32 c-42 51 -57 54 -88 23z"/>
<path d="M5913 6525 c-18 -19 -33 -38 -33 -43 0 -11 64 -72 76 -72 6 0 25 15
43 34 l33 34 -37 41 c-21 23 -40 41 -44 41 -3 0 -21 -16 -38 -35z"/>
<path d="M6095 6520 l-39 -40 34 -35 c19 -19 40 -35 48 -35 8 0 30 16 49 35
l33 34 -36 41 c-20 22 -39 40 -43 40 -4 0 -25 -18 -46 -40z"/>
<path d="M6285 6520 l-39 -40 34 -35 c19 -19 39 -35 45 -35 12 0 75 61 75 73
0 6 -67 77 -73 77 -2 0 -21 -18 -42 -40z"/>
<path d="M6472 6527 c-18 -18 -32 -40 -32 -48 0 -17 56 -69 74 -69 7 0 27 16
46 35 l34 35 -39 40 c-21 22 -42 40 -45 40 -3 0 -20 -15 -38 -33z"/>
<path d="M6655 6520 l-39 -40 34 -35 c19 -19 39 -35 45 -35 14 0 75 62 75 76
0 10 -61 74 -71 74 -3 0 -23 -18 -44 -40z"/>
<path d="M6845 6520 l-39 -40 34 -35 c19 -19 39 -35 45 -35 6 0 26 16 45 35
29 30 32 36 19 52 -13 16 -60 63 -63 63 -1 0 -20 -18 -41 -40z"/>
<path d="M7032 6527 c-18 -18 -32 -38 -32 -44 0 -14 58 -73 70 -73 5 0 26 16
46 36 l36 36 -38 39 c-21 22 -41 39 -44 39 -3 0 -20 -15 -38 -33z"/>
<path d="M7215 6520 l-39 -40 34 -35 c19 -19 39 -35 45 -35 14 0 75 62 75 76
0 10 -61 74 -71 74 -3 0 -23 -18 -44 -40z"/>
<path d="M5742 6507 c-38 -39 -39 -47 -9 -75 31 -29 37 -28 75 11 38 39 39 47
9 75 -31 29 -37 28 -75 -11z"/>
<path d="M7530 6465 l-75 -75 41 -41 40 -40 67 66 67 66 -16 37 c-9 20 -18 43
-21 50 -10 23 -29 12 -103 -63z"/>
<path d="M1615 6449 c-19 -17 -35 -36 -35 -43 0 -14 62 -76 76 -76 11 0 74 62
74 73 0 8 -66 77 -74 77 -3 0 -21 -14 -41 -31z"/>
<path d="M1797 6442 l-36 -37 34 -38 c19 -20 38 -37 43 -37 11 0 72 64 72 76
0 10 -61 74 -71 74 -3 0 -21 -17 -42 -38z"/>
<path d="M1986 6441 l-38 -38 32 -37 c18 -20 37 -36 44 -36 15 0 76 62 76 77
0 9 -64 73 -73 73 -2 0 -20 -17 -41 -39z"/>
<path d="M2172 6447 c-18 -18 -32 -37 -32 -43 0 -13 63 -74 76 -74 10 0 74 64
74 74 0 7 -72 76 -80 76 -3 0 -20 -15 -38 -33z"/>
<path d="M2357 6442 l-36 -37 34 -38 c19 -20 38 -37 43 -37 11 0 72 64 72 76
0 10 -61 74 -71 74 -3 0 -21 -17 -42 -38z"/>
<path d="M2542 6447 c-18 -18 -32 -37 -32 -43 0 -5 17 -27 38 -47 l38 -37 37
38 c20 21 37 43 37 49 0 12 -66 73 -78 73 -5 0 -22 -15 -40 -33z"/>
<path d="M2732 6447 c-18 -18 -32 -37 -32 -43 0 -11 62 -74 73 -74 3 0 23 16
43 36 l36 36 -38 39 c-21 22 -41 39 -44 39 -3 0 -20 -15 -38 -33z"/>
<path d="M2917 6445 c-21 -20 -37 -39 -37 -44 0 -11 64 -71 76 -71 13 0 74 63
74 76 0 10 -62 74 -71 74 -3 0 -22 -16 -42 -35z"/>
<path d="M3102 6447 c-18 -18 -32 -37 -32 -43 0 -13 63 -74 76 -74 6 0 25 16
44 35 l34 35 -25 27 c-27 31 -51 52 -60 53 -3 0 -19 -15 -37 -33z"/>
<path d="M5819 6429 l-42 -42 42 -40 43 -39 34 33 c19 18 34 40 34 49 0 9 -15
31 -34 49 l-34 33 -43 -43z"/>
<path d="M6005 6430 l-39 -40 41 -42 41 -41 36 36 c20 20 36 40 36 45 0 4 -17
25 -38 45 l-38 37 -39 -40z"/>
<path d="M6192 6427 l-42 -43 33 -32 c18 -18 40 -32 48 -32 8 0 30 16 49 35
l34 35 -40 40 -40 40 -42 -43z"/>
<path d="M6375 6429 l-37 -41 38 -39 c41 -42 49 -41 97 8 l27 30 -23 24 c-62
64 -60 64 -102 18z"/>
<path d="M6567 6432 c-20 -21 -37 -42 -37 -47 0 -11 64 -65 78 -65 4 0 23 16
42 35 l34 35 -40 40 -40 40 -37 -38z"/>
<path d="M6748 6431 l-42 -43 43 -40 43 -40 38 37 c43 42 43 50 -9 99 l-30 29
-43 -42z"/>
<path d="M6935 6429 l-37 -41 38 -39 38 -39 38 37 c21 20 38 40 38 43 0 7 -68
80 -74 80 -2 0 -20 -18 -41 -41z"/>
<path d="M7305 6429 l-37 -41 29 -30 c48 -50 56 -51 97 -9 l38 39 -37 41 c-21
23 -41 41 -45 41 -4 0 -24 -18 -45 -41z"/>
<path d="M3276 6431 l-28 -29 37 -36 c19 -20 41 -36 48 -36 6 0 22 12 34 27
l23 27 -37 38 c-20 21 -40 38 -43 38 -4 0 -19 -13 -34 -29z"/>
<path d="M7122 6427 c-18 -18 -32 -36 -32 -39 0 -12 61 -68 74 -68 7 0 27 16
46 35 l34 35 -34 35 c-19 19 -39 35 -45 35 -6 0 -25 -15 -43 -33z"/>
<path d="M5656 6415 c-20 -21 -36 -41 -36 -45 0 -12 41 -50 53 -50 7 0 28 16
47 35 l34 35 -31 32 -31 31 -36 -38z"/>
<path d="M1321 6412 c-6 -12 -14 -40 -17 -64 -5 -38 -2 -47 25 -75 16 -18 36
-33 43 -33 8 0 29 16 48 35 l34 35 -61 62 c-58 58 -61 60 -72 40z"/>
<path d="M7604 6355 l-57 -57 42 -41 41 -42 42 42 41 41 -15 53 c-8 29 -19 54
-26 57 -6 2 -37 -22 -68 -53z"/>
<path d="M2082 6357 c-18 -18 -32 -40 -32 -48 0 -8 15 -30 34 -48 l34 -33 44
40 43 41 -30 31 c-49 51 -58 53 -93 17z"/>
<path d="M2456 6360 c-20 -18 -36 -38 -36 -45 0 -6 16 -29 36 -49 l37 -38 41
41 41 41 -41 41 -41 41 -37 -32z"/>
<path d="M2634 6349 l-38 -39 40 -41 41 -41 42 43 41 43 -28 29 c-47 50 -55
50 -98 6z"/>
<path d="M1517 6352 c-36 -37 -34 -54 10 -92 l37 -33 39 43 39 42 -33 34 c-40
41 -57 42 -92 6z"/>
<path d="M1700 6345 l-34 -35 34 -35 c19 -19 39 -35 45 -35 6 0 26 15 44 34
35 36 35 42 -3 83 -29 31 -47 29 -86 -12z"/>
<path d="M1890 6345 c-36 -37 -36 -40 19 -93 l25 -23 40 40 40 41 -34 35 c-19
19 -39 35 -45 35 -6 0 -26 -16 -45 -35z"/>
<path d="M2260 6345 l-34 -35 34 -35 c19 -19 39 -35 45 -35 11 0 75 61 75 72
0 12 -61 68 -74 68 -7 0 -27 -16 -46 -35z"/>
<path d="M2821 6349 c-17 -17 -31 -34 -31 -38 0 -4 17 -24 38 -44 l38 -37 39
40 39 40 -34 35 c-19 19 -39 35 -46 35 -7 0 -26 -14 -43 -31z"/>
<path d="M3007 6352 c-35 -37 -34 -51 9 -93 l35 -34 41 43 40 44 -33 34 c-40
41 -57 42 -92 6z"/>
<path d="M3190 6345 l-34 -35 34 -35 c39 -41 57 -43 86 -12 38 41 38 47 3 83
-18 19 -38 34 -44 34 -6 0 -26 -16 -45 -35z"/>
<path d="M5912 6337 l-42 -43 38 -37 c21 -20 41 -37 45 -37 4 0 23 16 43 35
39 39 37 49 -13 97 l-29 28 -42 -43z"/>
<path d="M5721 6334 l-35 -35 42 -42 42 -41 35 34 c19 19 35 39 35 45 0 14
-62 75 -75 74 -6 0 -25 -16 -44 -35z"/>
<path d="M6097 6332 l-37 -38 40 -39 40 -39 40 39 40 39 -37 38 c-20 21 -40
38 -43 38 -3 0 -23 -17 -43 -38z"/>
<path d="M6282 6337 c-18 -18 -32 -37 -32 -43 0 -13 63 -74 76 -74 13 0 74 63
74 76 0 13 -63 74 -76 74 -6 0 -24 -15 -42 -33z"/>
<path d="M6472 6337 c-18 -18 -32 -37 -32 -43 0 -6 16 -25 35 -44 l35 -34 41
40 41 41 -38 37 c-20 20 -40 36 -44 36 -3 0 -20 -15 -38 -33z"/>
<path d="M6650 6335 l-34 -35 42 -42 42 -42 35 34 c19 19 35 39 35 45 0 14
-62 75 -76 75 -6 0 -25 -16 -44 -35z"/>
<path d="M6842 6337 c-18 -18 -32 -38 -32 -44 0 -6 16 -25 36 -43 l37 -32 38
38 c22 21 39 39 39 41 0 9 -64 73 -74 73 -7 0 -26 -15 -44 -33z"/>
<path d="M7032 6337 c-18 -18 -32 -37 -32 -43 0 -6 16 -25 35 -44 l35 -34 40
39 39 38 -32 38 c-18 20 -37 38 -43 38 -5 1 -24 -14 -42 -32z"/>
<path d="M7212 6337 c-18 -18 -32 -35 -32 -39 0 -6 39 -48 63 -67 16 -13 22
-10 52 19 19 19 35 39 35 45 0 14 -62 75 -76 75 -6 0 -24 -15 -42 -33z"/>
<path d="M7402 6337 c-18 -18 -32 -37 -32 -43 0 -6 16 -25 35 -44 30 -29 36
-32 52 -19 20 16 63 60 63 65 0 10 -64 74 -74 74 -7 0 -26 -15 -44 -33z"/>
<path d="M3370 6338 c-11 -12 -20 -25 -20 -28 0 -4 16 -24 36 -44 34 -36 37
-36 55 -20 25 22 24 31 -7 76 -31 44 -36 46 -64 16z"/>
<path d="M5571 6312 c-37 -47 -37 -53 -11 -77 20 -19 22 -18 61 21 l39 40 -28
27 -29 28 -32 -39z"/>
<path d="M1420 6254 l-32 -37 41 -41 41 -40 35 34 c19 19 35 39 35 45 0 14
-62 75 -77 75 -6 0 -25 -16 -43 -36z"/>
<path d="M1612 6257 c-18 -18 -32 -37 -32 -43 0 -6 16 -25 35 -44 l35 -34 42
42 42 42 -34 35 c-19 19 -39 35 -45 35 -6 0 -25 -15 -43 -33z"/>
<path d="M1802 6257 c-18 -18 -32 -37 -32 -43 0 -6 16 -25 35 -44 l35 -34 42
41 41 41 -35 36 c-19 20 -39 36 -45 36 -5 0 -23 -15 -41 -33z"/>
<path d="M1980 6255 c-29 -30 -32 -36 -19 -52 21 -26 61 -63 68 -63 11 0 71
65 71 76 0 13 -63 74 -76 74 -6 0 -25 -16 -44 -35z"/>
<path d="M2172 6257 c-18 -18 -32 -37 -32 -43 0 -6 16 -25 35 -44 l35 -34 42
42 42 42 -34 35 c-19 19 -39 35 -45 35 -6 0 -25 -15 -43 -33z"/>
<path d="M2350 6255 l-34 -35 42 -42 42 -42 35 34 c19 19 35 39 35 45 0 14
-62 75 -76 75 -6 0 -25 -16 -44 -35z"/>
<path d="M2540 6255 c-29 -30 -32 -36 -19 -52 14 -18 60 -63 64 -63 4 0 50 45
64 63 13 16 10 22 -19 52 -19 19 -39 35 -45 35 -6 0 -26 -16 -45 -35z"/>
<path d="M2730 6259 c-16 -18 -30 -37 -30 -44 0 -6 16 -26 35 -45 l35 -34 42
42 42 42 -34 35 c-19 19 -40 35 -47 35 -7 0 -26 -14 -43 -31z"/>
<path d="M2910 6255 l-34 -35 42 -42 42 -42 35 34 c19 19 35 39 35 45 0 14
-62 75 -76 75 -6 0 -25 -16 -44 -35z"/>
<path d="M3102 6257 c-18 -18 -32 -37 -32 -43 0 -11 62 -74 73 -74 10 0 77 67
77 78 0 11 -64 72 -76 72 -6 0 -24 -15 -42 -33z"/>
<path d="M3281 6253 l-33 -36 41 -40 41 -41 35 34 c19 19 35 39 35 45 0 14
-63 75 -75 74 -6 -1 -25 -17 -44 -36z"/>
<path d="M1287 6273 c-10 -9 -9 -123 1 -123 4 0 23 15 41 34 32 33 33 34 14
53 -34 33 -50 43 -56 36z"/>
<path d="M5633 6246 c-18 -18 -33 -37 -33 -43 0 -13 63 -73 77 -73 6 0 25 16
43 36 l32 37 -38 38 c-21 22 -41 39 -44 38 -3 0 -20 -15 -37 -33z"/>
<path d="M5817 6242 l-37 -38 40 -39 40 -39 27 25 c56 49 57 50 16 91 -20 21
-40 38 -43 38 -3 0 -23 -17 -43 -38z"/>
<path d="M6005 6240 l-39 -40 39 -40 39 -40 38 37 c21 20 38 42 38 49 0 10
-64 74 -73 74 -2 0 -21 -18 -42 -40z"/>
<path d="M6187 6242 l-37 -38 38 -37 c21 -20 42 -37 48 -37 6 0 25 16 44 35
l34 35 -39 40 c-21 22 -42 40 -45 40 -3 0 -23 -17 -43 -38z"/>
<path d="M6376 6241 l-38 -38 32 -37 c18 -20 37 -36 44 -36 7 0 29 17 49 38
l37 38 -38 37 c-21 20 -40 37 -43 37 -3 0 -22 -17 -43 -39z"/>
<path d="M6562 6247 c-18 -18 -32 -37 -32 -43 0 -13 63 -74 76 -74 11 0 74 62
74 72 0 9 -71 78 -80 78 -3 0 -20 -15 -38 -33z"/>
<path d="M6747 6242 l-37 -38 40 -39 40 -39 40 39 40 39 -37 38 c-20 21 -40
38 -43 38 -3 0 -23 -17 -43 -38z"/>
<path d="M6936 6241 l-38 -39 38 -41 37 -42 39 38 c21 20 38 42 38 49 0 10
-64 74 -73 74 -2 0 -20 -18 -41 -39z"/>
<path d="M7122 6247 c-18 -18 -32 -37 -32 -43 0 -13 63 -74 76 -74 6 0 25 16
44 35 l34 35 -39 40 c-21 22 -42 40 -45 40 -3 0 -20 -15 -38 -33z"/>
<path d="M7306 6241 l-38 -38 38 -37 c20 -20 40 -36 44 -36 4 0 24 16 44 36
l38 37 -38 38 c-21 22 -41 39 -44 39 -3 0 -23 -17 -44 -39z"/>
<path d="M7493 6246 c-18 -18 -33 -37 -33 -43 0 -12 63 -73 76 -73 13 0 74 63
74 77 0 12 -66 73 -78 72 -4 0 -22 -15 -39 -33z"/>
<path d="M7667 6232 l-27 -28 40 -39 40 -39 0 67 c0 76 -10 84 -53 39z"/>
<path d="M3450 6235 c-14 -16 -7 -28 39 -72 46 -44 59 -18 22 44 -28 46 -41
52 -61 28z"/>
<path d="M5494 6195 c-20 -35 -24 -49 -15 -58 9 -9 20 -2 49 26 30 30 35 40
26 54 -19 30 -32 25 -60 -22z"/>
<path d="M1333 6166 c-18 -18 -33 -37 -33 -43 0 -12 63 -73 76 -73 11 0 74 62
74 73 0 9 -69 77 -78 76 -4 0 -22 -15 -39 -33z"/>
<path d="M1522 6167 c-18 -18 -32 -37 -32 -43 0 -11 62 -74 72 -74 4 0 24 16
45 35 l38 34 -40 41 c-21 22 -42 40 -45 40 -3 0 -20 -15 -38 -33z"/>
<path d="M1705 6160 l-39 -40 34 -35 c19 -19 39 -35 45 -35 14 0 75 62 75 76
0 10 -61 74 -71 74 -3 0 -23 -18 -44 -40z"/>
<path d="M1892 6167 c-18 -18 -32 -37 -32 -43 0 -13 63 -74 76 -74 12 0 74 62
74 73 0 12 -65 77 -77 77 -5 0 -23 -15 -41 -33z"/>
<path d="M2082 6167 c-18 -18 -32 -38 -32 -44 0 -13 57 -73 69 -73 11 0 71 64
71 76 0 10 -61 74 -71 74 -3 0 -19 -15 -37 -33z"/>
<path d="M2262 6167 c-18 -18 -32 -37 -32 -43 0 -13 63 -74 76 -74 13 0 74 63
74 76 0 13 -63 74 -76 74 -6 0 -24 -15 -42 -33z"/>
<path d="M2452 6167 c-18 -18 -32 -37 -32 -43 0 -11 62 -74 72 -74 12 0 68 61
68 74 0 11 -60 76 -71 76 -3 0 -19 -15 -37 -33z"/>
<path d="M2637 6165 c-34 -31 -37 -38 -25 -53 20 -25 60 -62 67 -62 11 0 71
65 71 76 0 10 -61 74 -70 74 -3 0 -22 -16 -43 -35z"/>
<path d="M2822 6167 c-18 -18 -32 -37 -32 -43 0 -13 63 -74 76 -74 11 0 74 62
74 72 0 12 -64 78 -75 78 -6 0 -25 -15 -43 -33z"/>
<path d="M3012 6167 c-18 -18 -32 -37 -32 -43 0 -20 68 -77 82 -68 28 16 58
50 58 65 0 13 -58 79 -71 79 -3 0 -19 -15 -37 -33z"/>
<path d="M3193 6164 c-18 -19 -33 -38 -33 -42 0 -12 64 -72 76 -72 13 0 74 63
74 76 0 13 -63 74 -75 73 -6 -1 -25 -16 -42 -35z"/>
<path d="M3382 6167 c-18 -18 -32 -37 -32 -43 0 -13 63 -74 76 -74 6 0 25 16
44 35 l34 35 -39 40 c-21 22 -42 40 -45 40 -3 0 -20 -15 -38 -33z"/>
<path d="M5915 6150 l-39 -40 39 -40 39 -40 29 28 c49 47 50 55 9 95 l-38 37
-39 -40z"/>
<path d="M6094 6149 l-38 -39 42 -43 43 -42 41 43 40 44 -28 30 c-49 51 -57
51 -100 7z"/>
<path d="M6466 6151 l-38 -39 40 -44 41 -43 43 42 42 43 -39 40 c-21 22 -42
40 -45 40 -3 0 -23 -18 -44 -39z"/>
<path d="M6845 6150 l-39 -40 39 -40 39 -40 41 40 40 40 -40 40 -41 40 -39
-40z"/>
<path d="M7025 6150 l-37 -38 39 -43 40 -42 42 42 43 43 -29 30 c-48 51 -56
51 -98 8z"/>
<path d="M7407 6157 c-20 -18 -37 -38 -37 -44 0 -7 16 -29 36 -49 l37 -36 41
41 41 41 -41 40 -40 41 -37 -34z"/>
<path d="M5541 6153 c-40 -35 -39 -51 4 -93 l34 -33 42 42 42 42 -33 34 c-19
19 -39 35 -46 35 -7 0 -26 -12 -43 -27z"/>
<path d="M5720 6145 l-34 -35 34 -35 c19 -19 39 -35 45 -35 6 0 26 16 45 35
l34 35 -34 35 c-19 19 -39 35 -45 35 -6 0 -26 -16 -45 -35z"/>
<path d="M6280 6145 l-34 -35 40 -40 40 -40 39 40 39 40 -34 35 c-19 19 -39
35 -45 35 -6 0 -26 -16 -45 -35z"/>
<path d="M6650 6145 l-34 -35 34 -35 c19 -19 39 -35 45 -35 11 0 75 61 75 72
0 12 -61 68 -74 68 -7 0 -27 -16 -46 -35z"/>
<path d="M7210 6145 l-34 -35 41 -41 40 -41 37 36 c20 20 36 40 36 44 0 12
-64 72 -76 72 -6 0 -25 -16 -44 -35z"/>
<path d="M7581 6146 l-33 -34 32 -36 c18 -20 40 -36 50 -36 10 0 32 16 50 36
l32 36 -33 34 c-18 19 -40 34 -49 34 -9 0 -31 -15 -49 -34z"/>
<path d="M3540 6129 c0 -9 7 -22 15 -29 19 -16 19 0 0 26 -12 16 -14 16 -15 3z"/>
<path d="M5446 6104 c-10 -25 1 -29 14 -5 6 12 7 21 1 21 -5 0 -12 -7 -15 -16z"/>
<path d="M1425 6070 l-39 -40 34 -35 c19 -19 39 -35 46 -35 17 0 74 52 74 67
0 10 -64 83 -73 83 -2 0 -21 -18 -42 -40z"/>
<path d="M1617 6075 c-20 -19 -37 -38 -37 -43 0 -5 17 -25 37 -46 l37 -37 40
41 41 40 -40 40 -40 40 -38 -35z"/>
<path d="M1795 6069 l-37 -41 29 -30 c48 -50 56 -51 97 -9 l38 39 -37 41 c-21
23 -41 41 -45 41 -4 0 -24 -18 -45 -41z"/>
<path d="M1985 6069 l-37 -41 38 -39 38 -39 38 37 c21 20 38 41 38 46 0 9 -67
77 -75 77 -1 0 -19 -18 -40 -41z"/>
<path d="M2172 6077 c-18 -18 -32 -38 -32 -44 0 -15 58 -73 74 -73 7 0 27 16
46 35 l34 35 -39 40 c-21 22 -42 40 -45 40 -3 0 -20 -15 -38 -33z"/>
<path d="M2355 6069 l-37 -41 33 -34 c18 -19 38 -34 45 -34 16 0 74 58 74 74
0 12 -60 76 -72 76 -3 0 -22 -18 -43 -41z"/>
<path d="M2547 6075 c-20 -19 -37 -38 -37 -42 0 -5 17 -26 38 -46 l38 -37 39
40 39 40 -39 40 -40 40 -38 -35z"/>
<path d="M2732 6077 c-18 -18 -32 -38 -32 -44 0 -15 58 -73 74 -73 7 0 27 16
46 35 l34 35 -39 40 c-21 22 -42 40 -45 40 -3 0 -20 -15 -38 -33z"/>
<path d="M2915 6070 l-39 -40 34 -35 c19 -19 39 -35 46 -35 19 0 74 53 74 70
0 14 -58 80 -71 80 -3 0 -23 -18 -44 -40z"/>
<path d="M3103 6074 c-18 -19 -33 -38 -33 -42 0 -12 64 -72 76 -72 6 0 25 16
44 35 l34 35 -39 40 c-21 22 -42 40 -45 39 -3 -1 -20 -16 -37 -35z"/>
<path d="M3289 6069 l-42 -42 42 -40 43 -39 38 37 c43 42 43 50 -8 98 l-30 29
-43 -43z"/>
<path d="M3475 6070 l-39 -40 34 -35 c19 -19 39 -35 45 -35 6 0 26 16 45 35
l34 35 -40 40 -40 40 -39 -40z"/>
<path d="M1283 6044 c3 -31 10 -61 14 -65 5 -5 22 4 38 21 l29 30 -34 35 c-19
19 -38 35 -43 35 -6 0 -7 -24 -4 -56z"/>
<path d="M5443 6054 l-36 -36 41 -41 42 -41 35 34 c19 19 35 39 35 45 0 12
-61 75 -73 75 -4 0 -24 -16 -44 -36z"/>
<path d="M5632 6057 c-18 -18 -32 -37 -32 -43 0 -6 16 -25 35 -44 l35 -34 42
42 42 42 -34 35 c-19 19 -39 35 -45 35 -6 0 -25 -15 -43 -33z"/>
<path d="M5817 6052 l-37 -38 40 -39 40 -39 35 34 c19 19 35 39 35 45 0 11
-61 75 -71 75 -3 0 -22 -17 -42 -38z"/>
<path d="M6000 6055 c-33 -34 -33 -35 -14 -57 36 -41 54 -58 62 -58 11 0 72
64 72 76 0 13 -63 74 -76 74 -6 0 -25 -16 -44 -35z"/>
<path d="M6192 6057 c-18 -18 -32 -37 -32 -43 0 -6 16 -25 35 -44 l35 -34 42
42 42 42 -34 35 c-19 19 -39 35 -45 35 -6 0 -25 -15 -43 -33z"/>
<path d="M6370 6055 l-34 -35 42 -42 42 -42 35 34 c19 19 35 39 35 45 0 14
-62 75 -76 75 -6 0 -25 -16 -44 -35z"/>
<path d="M6562 6057 c-18 -18 -32 -37 -32 -43 0 -6 16 -25 35 -44 l35 -34 42
42 42 42 -34 35 c-19 19 -39 35 -45 35 -6 0 -25 -15 -43 -33z"/>
<path d="M6752 6057 c-18 -18 -32 -37 -32 -43 0 -6 16 -25 35 -44 l35 -34 35
34 c19 19 35 39 35 46 0 13 -57 74 -69 74 -4 0 -21 -15 -39 -33z"/>
<path d="M6930 6055 l-34 -35 40 -41 41 -41 36 35 c21 19 37 39 37 44 0 12
-63 73 -76 73 -6 0 -25 -16 -44 -35z"/>
<path d="M7122 6057 c-18 -18 -32 -37 -32 -43 0 -11 62 -74 73 -74 9 0 77 69
77 78 0 12 -64 72 -76 72 -6 0 -24 -15 -42 -33z"/>
<path d="M7311 6063 c-40 -35 -39 -51 4 -93 l35 -34 35 34 c19 19 35 39 35 46
0 14 -57 74 -70 74 -4 0 -22 -12 -39 -27z"/>
<path d="M7492 6057 c-18 -18 -32 -36 -32 -40 0 -9 69 -77 78 -77 12 0 72 64
72 76 0 13 -63 74 -76 74 -6 0 -24 -15 -42 -33z"/>
<path d="M7682 6057 c-39 -40 -39 -47 -6 -77 21 -21 27 -22 34 -10 9 13 15
120 7 120 -2 0 -17 -15 -35 -33z"/>
<path d="M2075 5979 l-37 -41 41 -42 41 -41 40 41 41 40 -24 25 c-62 64 -60
64 -102 18z"/>
<path d="M2451 5978 l-44 -41 42 -40 43 -39 38 37 c43 42 42 50 -7 97 l-29 28
-43 -42z"/>
<path d="M3382 5977 l-43 -44 42 -37 41 -38 42 41 41 41 -40 40 -41 40 -42
-43z"/>
<path d="M1332 5977 c-18 -18 -32 -36 -32 -40 0 -11 61 -77 72 -77 12 0 78 64
78 77 0 12 -63 73 -76 73 -6 0 -24 -15 -42 -33z"/>
<path d="M1516 5974 l-38 -37 41 -41 41 -41 41 41 41 41 -38 37 c-20 20 -40
36 -44 36 -4 0 -24 -16 -44 -36z"/>
<path d="M1700 5975 c-37 -38 -38 -34 23 -97 23 -25 28 -23 70 20 l37 38 -38
37 c-21 20 -42 37 -48 37 -6 0 -25 -16 -44 -35z"/>
<path d="M1887 5972 l-38 -39 42 -37 41 -38 39 38 c21 21 39 39 39 41 0 9 -64
73 -74 73 -7 0 -29 -17 -49 -38z"/>
<path d="M2262 5977 c-18 -18 -32 -36 -32 -39 0 -4 16 -23 37 -42 30 -30 39
-34 52 -23 24 19 61 59 61 66 0 11 -65 71 -76 71 -6 0 -24 -15 -42 -33z"/>
<path d="M2630 5974 l-32 -37 38 -38 c21 -22 39 -39 41 -39 2 0 21 16 43 37
l41 36 -38 39 c-20 21 -42 38 -49 38 -7 0 -26 -16 -44 -36z"/>
<path d="M2822 5977 c-18 -18 -32 -36 -32 -39 0 -4 16 -23 37 -42 39 -39 38
-39 90 9 13 11 23 25 23 31 0 13 -62 74 -76 74 -6 0 -24 -15 -42 -33z"/>
<path d="M3006 5974 l-38 -37 41 -41 41 -41 41 41 41 41 -38 37 c-20 20 -40
36 -44 36 -4 0 -24 -16 -44 -36z"/>
<path d="M3192 5973 l-33 -36 40 -41 41 -40 35 34 c19 19 35 39 35 45 0 14
-62 75 -75 75 -6 0 -25 -17 -43 -37z"/>
<path d="M3562 5967 l-32 -33 40 -39 c37 -36 41 -38 56 -23 15 14 15 20 0 72
-9 31 -20 56 -24 56 -5 0 -22 -15 -40 -33z"/>
<path d="M5542 5967 c-18 -18 -32 -37 -32 -43 0 -6 16 -25 35 -44 l35 -34 35
34 c19 19 35 39 35 45 0 11 -61 75 -71 75 -3 0 -19 -15 -37 -33z"/>
<path d="M5725 5960 l-39 -40 34 -35 c19 -19 39 -35 45 -35 14 0 75 62 75 76
0 10 -61 74 -71 74 -3 0 -23 -18 -44 -40z"/>
<path d="M5912 5967 c-18 -18 -32 -37 -32 -43 0 -13 63 -74 76 -74 6 0 25 16
44 35 29 30 32 36 19 52 -18 22 -62 62 -70 63 -3 0 -19 -15 -37 -33z"/>
<path d="M6097 5962 l-36 -37 34 -38 c19 -20 38 -37 43 -37 11 0 72 64 72 76
0 10 -61 74 -71 74 -3 0 -21 -17 -42 -38z"/>
<path d="M6282 5967 c-18 -18 -32 -37 -32 -43 0 -13 63 -74 76 -74 13 0 74 63
74 76 0 13 -63 74 -76 74 -6 0 -24 -15 -42 -33z"/>
<path d="M6472 5967 c-18 -18 -32 -37 -32 -43 0 -6 16 -25 35 -44 l35 -34 40
39 40 39 -37 38 c-20 21 -40 38 -43 38 -3 0 -20 -15 -38 -33z"/>
<path d="M6655 5960 l-39 -40 34 -35 c19 -19 39 -35 45 -35 14 0 75 62 75 76
0 10 -61 74 -71 74 -3 0 -23 -18 -44 -40z"/>
<path d="M6845 5969 c-19 -17 -35 -36 -35 -43 0 -14 61 -76 74 -76 5 0 24 16
43 35 30 31 33 38 21 53 -15 19 -59 62 -64 62 -2 0 -19 -14 -39 -31z"/>
<path d="M7032 5967 c-18 -18 -32 -37 -32 -43 0 -11 62 -74 73 -74 3 0 23 16
43 36 l36 36 -38 39 c-21 22 -41 39 -44 39 -3 0 -20 -15 -38 -33z"/>
<path d="M7215 5965 c-19 -19 -35 -38 -35 -43 0 -11 64 -72 76 -72 13 0 74 63
74 76 0 11 -62 74 -73 74 -4 0 -23 -16 -42 -35z"/>
<path d="M7402 5967 c-18 -18 -32 -37 -32 -43 0 -13 63 -74 76 -74 6 0 25 16
44 35 29 30 32 36 19 52 -21 26 -61 63 -68 63 -4 0 -21 -15 -39 -33z"/>
<path d="M7586 5961 l-37 -38 34 -37 c19 -20 40 -36 46 -36 14 0 70 61 71 76
0 10 -61 74 -71 74 -3 0 -22 -17 -43 -39z"/>
<path d="M5377 5933 c-12 -41 -14 -60 -6 -70 18 -20 32 -16 69 22 36 37 35 38
-12 87 -27 28 -34 23 -51 -39z"/>
<path d="M1427 5885 c-21 -20 -37 -38 -37 -40 0 -11 63 -75 74 -75 14 0 76 62
76 76 0 10 -62 74 -71 74 -3 0 -22 -16 -42 -35z"/>
<path d="M1612 5887 c-18 -18 -32 -37 -32 -43 0 -13 63 -74 76 -74 11 0 74 62
74 72 0 9 -71 78 -80 78 -3 0 -20 -15 -38 -33z"/>
<path d="M1797 5882 l-36 -37 34 -38 c19 -20 38 -37 42 -37 5 0 26 17 46 38
l37 38 -38 37 c-21 20 -40 37 -43 37 -3 0 -21 -17 -42 -38z"/>
<path d="M1996 5899 c-47 -37 -50 -54 -15 -94 17 -19 36 -35 43 -35 7 0 29 17
49 38 l37 38 -38 37 c-21 20 -40 37 -44 37 -3 0 -17 -9 -32 -21z"/>
<path d="M2172 5887 c-18 -18 -32 -37 -32 -43 0 -12 62 -74 74 -74 8 0 76 67
76 75 0 7 -73 75 -80 75 -3 0 -20 -15 -38 -33z"/>
<path d="M2357 5885 c-21 -20 -37 -37 -37 -39 0 -5 43 -49 63 -65 16 -13 22
-10 57 24 l40 39 -37 38 c-20 21 -40 38 -43 38 -4 0 -23 -16 -43 -35z"/>
<path d="M2541 5885 c-17 -20 -31 -38 -31 -40 0 -11 63 -75 74 -75 7 0 27 15
45 34 28 29 31 37 22 54 -11 21 -58 62 -71 62 -5 0 -22 -16 -39 -35z"/>
<path d="M2727 5882 l-37 -38 38 -37 c21 -20 42 -37 46 -37 5 0 24 16 43 36
l34 37 -37 38 c-21 22 -41 39 -44 39 -3 0 -23 -17 -43 -38z"/>
<path d="M2917 5885 c-21 -20 -37 -37 -37 -39 0 -5 43 -49 63 -65 16 -13 22
-10 52 19 19 19 35 39 35 45 0 11 -61 75 -71 75 -3 0 -22 -16 -42 -35z"/>
<path d="M3107 5887 c-21 -18 -37 -37 -37 -43 0 -13 63 -74 77 -74 9 0 73 64
73 74 0 4 -43 49 -61 63 -13 11 -22 7 -52 -20z"/>
<path d="M3287 5882 l-37 -38 40 -39 40 -39 40 39 40 39 -37 38 c-20 21 -40
38 -43 38 -3 0 -23 -17 -43 -38z"/>
<path d="M3476 5881 l-38 -39 38 -41 37 -42 44 43 43 42 -37 38 c-20 21 -40
38 -43 38 -3 0 -23 -18 -44 -39z"/>
<path d="M5445 5870 l-39 -40 39 -40 39 -40 38 37 c21 20 38 40 38 43 0 6 -68
80 -73 80 -2 0 -21 -18 -42 -40z"/>
<path d="M5818 5871 l-43 -41 43 -41 44 -41 34 33 c19 18 34 40 34 49 0 9 -15
31 -34 49 l-34 33 -44 -41z"/>
<path d="M6005 5870 l-39 -40 39 -40 39 -40 38 37 c21 20 38 40 38 43 0 6 -68
80 -73 80 -2 0 -21 -18 -42 -40z"/>
<path d="M6375 5870 l-39 -40 34 -35 c19 -19 40 -35 47 -35 16 0 72 60 73 76
0 10 -64 74 -73 74 -2 0 -21 -18 -42 -40z"/>
<path d="M6748 5872 l-43 -41 34 -35 c19 -20 42 -36 51 -36 17 0 70 55 70 74
0 7 -15 27 -34 45 l-34 33 -44 -40z"/>
<path d="M6935 5870 l-39 -40 40 -41 41 -41 37 38 c20 20 36 40 36 44 0 6 -68
80 -73 80 -2 0 -21 -18 -42 -40z"/>
<path d="M7308 5872 l-43 -41 34 -35 c42 -43 56 -44 93 -9 36 35 35 52 -6 92
l-34 33 -44 -40z"/>
<path d="M7495 5870 l-39 -40 34 -35 c19 -19 40 -35 48 -35 13 0 72 58 72 71
0 6 -68 79 -73 79 -2 0 -21 -18 -42 -40z"/>
<path d="M5630 5865 l-34 -35 34 -35 c19 -19 39 -35 45 -35 6 0 26 16 45 35
l34 35 -34 35 c-19 19 -39 35 -45 35 -6 0 -26 -16 -45 -35z"/>
<path d="M6187 5872 c-15 -15 -27 -32 -27 -38 0 -15 57 -74 72 -74 8 0 29 16
48 35 l34 35 -34 35 c-41 42 -58 44 -93 7z"/>
<path d="M6560 5865 l-34 -35 34 -35 c19 -19 39 -35 45 -35 6 0 26 16 45 35
l34 35 -34 35 c-19 19 -39 35 -45 35 -6 0 -26 -16 -45 -35z"/>
<path d="M7124 5877 c-38 -41 -38 -47 -3 -83 18 -19 38 -34 44 -34 6 0 26 16
45 35 l34 35 -34 35 c-39 41 -57 43 -86 12z"/>
<path d="M1330 5851 c0 -12 6 -21 15 -21 8 0 15 4 15 9 0 5 -7 14 -15 21 -13
10 -15 9 -15 -9z"/>
<path d="M3630 5846 c0 -9 5 -16 10 -16 6 0 10 4 10 9 0 6 -4 13 -10 16 -5 3
-10 -1 -10 -9z"/>
<path d="M7660 5845 c-9 -11 -10 -19 -3 -26 8 -8 13 -5 18 11 9 28 2 35 -15
15z"/>
<path d="M5357 5833 c-4 -3 -7 -11 -7 -17 0 -6 5 -5 12 2 6 6 9 14 7 17 -3 3
-9 2 -12 -2z"/>
<path d="M1516 5791 l-38 -39 41 -44 41 -43 41 43 41 44 -38 39 c-21 21 -41
39 -44 39 -3 0 -23 -18 -44 -39z"/>
<path d="M1891 5794 l-42 -39 42 -44 42 -43 41 41 41 41 -42 41 -41 42 -41
-39z"/>
<path d="M2075 5790 l-37 -38 39 -43 40 -42 42 42 43 43 -29 30 c-48 51 -56
51 -98 8z"/>
<path d="M2267 5794 c-21 -19 -37 -38 -37 -42 0 -5 17 -25 38 -45 l38 -37 37
38 c20 21 37 40 37 43 0 7 -38 48 -61 66 -13 11 -22 7 -52 -23z"/>
<path d="M2449 5793 l-42 -40 44 -41 43 -42 29 28 c49 47 50 55 7 97 l-38 37
-43 -39z"/>
<path d="M2634 5789 l-38 -39 41 -41 41 -41 42 42 42 42 -29 30 c-48 51 -56
51 -99 7z"/>
<path d="M3385 5790 l-39 -40 39 -40 39 -40 41 40 40 40 -40 40 -41 40 -39
-40z"/>
<path d="M3565 5790 l-37 -38 38 -42 39 -42 28 22 c45 36 36 102 -19 133 -6 3
-28 -11 -49 -33z"/>
<path d="M1355 5810 c-7 -12 12 -76 30 -102 11 -16 14 -15 40 12 l29 30 -34
35 c-35 36 -54 43 -65 25z"/>
<path d="M1700 5785 l-34 -35 34 -35 c19 -19 39 -35 45 -35 11 0 75 61 75 72
0 12 -61 68 -74 68 -7 0 -27 -16 -46 -35z"/>
<path d="M2821 5789 c-17 -17 -31 -34 -31 -38 0 -11 64 -71 76 -71 6 0 25 16
44 35 l34 35 -34 35 c-19 19 -39 35 -46 35 -7 0 -26 -14 -43 -31z"/>
<path d="M3011 5793 c-17 -15 -31 -33 -31 -41 0 -7 17 -29 38 -48 l37 -34 39
41 38 41 -33 34 c-18 19 -38 34 -45 34 -7 0 -26 -12 -43 -27z"/>
<path d="M3190 5785 l-34 -35 34 -35 c19 -19 39 -35 45 -35 11 0 75 61 75 72
0 12 -61 68 -74 68 -7 0 -27 -16 -46 -35z"/>
<path d="M5362 5787 c-31 -33 -29 -80 5 -107 l27 -21 40 40 40 41 -34 35 c-40
41 -49 43 -78 12z"/>
<path d="M5542 5777 c-18 -18 -32 -37 -32 -43 0 -6 16 -25 35 -44 l35 -34 41
41 41 40 -36 37 c-20 20 -40 36 -44 36 -5 0 -22 -15 -40 -33z"/>
<path d="M5721 5776 l-34 -35 24 -29 c45 -55 57 -58 95 -21 19 18 34 38 34 44
0 14 -62 75 -76 75 -6 0 -25 -15 -43 -34z"/>
<path d="M5912 5777 c-18 -18 -32 -38 -32 -44 0 -6 16 -25 36 -43 l37 -32 41
41 40 41 -34 35 c-19 19 -39 35 -45 35 -6 0 -25 -15 -43 -33z"/>
<path d="M6090 5775 l-34 -35 42 -43 42 -42 41 41 41 41 -36 37 c-20 20 -42
36 -49 36 -7 0 -28 -16 -47 -35z"/>
<path d="M6280 5775 c-29 -30 -32 -36 -19 -52 14 -18 60 -63 64 -63 4 0 50 45
64 63 13 16 10 22 -19 52 -19 19 -39 35 -45 35 -6 0 -26 -16 -45 -35z"/>
<path d="M6465 5774 l-39 -35 42 -42 42 -42 42 42 42 43 -34 35 c-19 19 -39
35 -45 35 -6 0 -29 -16 -50 -36z"/>
<path d="M6650 5775 l-34 -35 34 -35 c39 -41 57 -43 86 -12 38 41 38 47 3 83
-18 19 -38 34 -44 34 -6 0 -26 -16 -45 -35z"/>
<path d="M6840 5775 c-29 -30 -32 -36 -19 -52 14 -18 60 -63 64 -63 4 0 50 45
64 63 13 16 10 22 -19 52 -19 19 -39 35 -45 35 -6 0 -26 -16 -45 -35z"/>
<path d="M7027 5779 c-15 -17 -27 -36 -27 -43 0 -7 16 -27 35 -46 l35 -34 41
41 41 40 -36 37 c-20 20 -42 36 -49 36 -7 0 -25 -14 -40 -31z"/>
<path d="M7210 5775 l-34 -35 42 -42 42 -42 35 34 c19 19 35 39 35 45 0 14
-62 75 -76 75 -6 0 -25 -16 -44 -35z"/>
<path d="M7402 5777 c-18 -18 -32 -37 -32 -43 0 -10 62 -74 72 -74 6 0 48 39
67 63 13 16 10 22 -19 52 -19 19 -39 35 -45 35 -6 0 -25 -15 -43 -33z"/>
<path d="M7582 5773 l-34 -35 28 -29 c15 -15 31 -26 35 -23 5 3 17 25 28 50
35 78 2 99 -57 37z"/>
<path d="M1426 5701 c-26 -27 -27 -30 -13 -57 8 -16 25 -38 36 -48 21 -19 22
-19 56 14 19 19 35 39 35 45 0 14 -62 75 -76 75 -6 0 -23 -13 -38 -29z"/>
<path d="M1612 5697 c-18 -18 -32 -37 -32 -43 0 -6 16 -25 35 -44 l35 -34 42
42 42 42 -34 35 c-19 19 -39 35 -45 35 -6 0 -25 -15 -43 -33z"/>
<path d="M1790 5695 l-34 -35 42 -42 42 -42 35 34 c19 19 35 39 35 46 0 16
-58 74 -74 74 -7 0 -27 -16 -46 -35z"/>
<path d="M1980 5695 c-29 -30 -32 -36 -19 -52 19 -24 61 -63 67 -63 8 0 72 68
72 78 0 11 -64 72 -76 72 -6 0 -25 -16 -44 -35z"/>
<path d="M2171 5699 c-17 -17 -31 -36 -31 -43 0 -7 16 -27 35 -46 l35 -34 42
42 42 42 -34 35 c-19 19 -39 35 -46 35 -7 0 -26 -14 -43 -31z"/>
<path d="M2350 5695 l-34 -35 42 -42 42 -42 35 34 c19 19 35 39 35 46 0 16
-58 74 -74 74 -7 0 -27 -16 -46 -35z"/>
<path d="M2542 5697 c-18 -18 -32 -36 -32 -40 0 -7 68 -77 75 -77 8 0 75 68
75 77 0 12 -63 73 -76 73 -6 0 -24 -15 -42 -33z"/>
<path d="M2731 5699 c-17 -17 -31 -36 -31 -43 0 -7 16 -27 35 -46 l35 -34 42
42 42 42 -34 35 c-19 19 -39 35 -46 35 -7 0 -26 -14 -43 -31z"/>
<path d="M2921 5703 c-40 -35 -39 -51 4 -93 l35 -34 35 34 c19 19 35 39 35 45
0 11 -61 75 -72 75 -3 0 -20 -12 -37 -27z"/>
<path d="M3102 5697 c-18 -18 -32 -36 -32 -40 0 -3 16 -23 36 -43 l37 -36 40
41 41 41 -34 35 c-19 19 -39 35 -45 35 -6 0 -25 -15 -43 -33z"/>
<path d="M3292 5697 c-18 -18 -32 -37 -32 -43 0 -6 16 -25 35 -44 l35 -34 35
34 c19 19 35 39 35 46 0 13 -57 74 -69 74 -4 0 -21 -15 -39 -33z"/>
<path d="M3470 5695 l-34 -35 42 -42 42 -42 35 34 c19 19 35 39 35 45 0 14
-62 75 -76 75 -6 0 -25 -16 -44 -35z"/>
<path d="M5447 5682 l-38 -38 21 -27 c40 -50 58 -53 96 -16 19 18 34 38 34 44
0 11 -61 75 -71 75 -3 0 -22 -17 -42 -38z"/>
<path d="M5632 5687 c-18 -18 -32 -37 -32 -43 0 -13 63 -74 76 -74 11 0 74 62
74 73 0 9 -69 77 -78 77 -5 0 -22 -15 -40 -33z"/>
<path d="M5817 5682 l-38 -38 23 -25 c53 -55 56 -55 93 -19 19 19 35 39 35 45
0 11 -61 75 -71 75 -3 0 -22 -17 -42 -38z"/>
<path d="M6002 5687 c-18 -18 -32 -37 -32 -43 0 -13 63 -74 76 -74 13 0 74 63
74 76 0 13 -63 74 -76 74 -6 0 -24 -15 -42 -33z"/>
<path d="M6192 5687 c-18 -18 -32 -37 -32 -43 0 -10 62 -74 72 -74 6 0 47 38
66 62 11 14 8 21 -23 52 -20 20 -39 36 -43 36 -5 0 -22 -15 -40 -33z"/>
<path d="M6371 5684 c-27 -30 -30 -38 -19 -52 20 -25 60 -62 67 -62 11 0 71
65 71 76 0 13 -63 74 -77 74 -6 0 -25 -16 -42 -36z"/>
<path d="M6562 5687 c-18 -18 -32 -37 -32 -43 0 -11 62 -74 73 -74 10 0 77 67
77 78 0 11 -64 72 -76 72 -6 0 -24 -15 -42 -33z"/>
<path d="M6752 5687 c-18 -18 -32 -37 -32 -43 0 -11 62 -74 72 -74 12 0 68 61
68 74 0 11 -60 76 -71 76 -3 0 -19 -15 -37 -33z"/>
<path d="M6945 5697 c-48 -52 -48 -51 -9 -90 19 -21 38 -37 43 -37 11 0 71 64
71 76 0 13 -63 74 -75 74 -6 0 -19 -10 -30 -23z"/>
<path d="M7122 5687 c-18 -18 -32 -37 -32 -43 0 -13 63 -74 76 -74 11 0 74 62
74 73 0 9 -69 77 -78 77 -5 0 -22 -15 -40 -33z"/>
<path d="M7307 5682 l-37 -38 38 -37 c21 -20 41 -37 44 -37 12 0 68 61 68 74
0 11 -60 76 -71 76 -3 0 -22 -17 -42 -38z"/>
<path d="M7493 5684 c-18 -19 -33 -38 -33 -42 0 -5 16 -23 35 -42 41 -40 58
-36 90 23 l20 36 -30 31 c-16 16 -34 30 -39 29 -6 -1 -26 -16 -43 -35z"/>
<path d="M3640 5675 c-13 -16 -7 -45 10 -45 5 0 10 14 10 30 0 34 -3 36 -20
15z"/>
<path d="M5342 5654 c1 -9 9 -19 16 -22 9 -3 13 2 10 14 -1 9 -9 19 -16 22 -9
3 -13 -2 -10 -14z"/>
<path d="M3832 5633 c-6 -16 -68 -200 -138 -411 l-127 -383 33 -34 34 -35 223
0 c153 0 223 3 223 11 0 6 6 63 14 127 8 64 22 185 31 267 9 83 23 203 31 268
8 66 14 141 14 168 l0 49 -164 0 -164 0 -10 -27z"/>
<path d="M4335 5638 c-2 -13 -9 -68 -15 -123 -6 -55 -17 -158 -25 -230 -8 -71
-21 -191 -29 -265 -8 -74 -18 -161 -22 -192 l-7 -58 267 0 266 0 0 38 c0 20
-5 75 -10 122 -10 80 -22 189 -55 500 -8 74 -18 155 -23 180 l-8 45 -167 3
c-166 2 -167 2 -172 -20z"/>
<path d="M4846 5651 c-6 -8 2 -84 40 -426 7 -71 21 -195 29 -275 9 -80 18
-153 21 -162 5 -16 25 -18 228 -18 l222 0 32 33 32 33 -138 409 -137 410 -162
3 c-92 1 -164 -2 -167 -7z"/>
<path d="M1522 5607 c-18 -18 -32 -37 -32 -43 0 -6 16 -25 35 -44 l35 -34 35
34 c19 19 35 39 35 45 0 11 -61 75 -71 75 -3 0 -19 -15 -37 -33z"/>
<path d="M1702 5607 c-18 -18 -32 -37 -32 -43 0 -13 63 -74 76 -74 13 0 74 63
74 76 0 13 -63 74 -76 74 -6 0 -24 -15 -42 -33z"/>
<path d="M1892 5607 c-18 -18 -32 -37 -32 -43 0 -12 62 -74 74 -74 5 0 24 16
43 35 30 31 33 38 21 53 -20 25 -60 62 -67 62 -4 0 -21 -15 -39 -33z"/>
<path d="M2089 5617 c-52 -49 -52 -51 -13 -90 19 -21 39 -37 45 -37 6 0 25 17
44 37 l34 38 -36 37 c-21 21 -40 38 -44 38 -3 0 -17 -10 -30 -23z"/>
<path d="M2262 5607 c-18 -18 -32 -37 -32 -43 0 -13 63 -74 76 -74 13 0 74 63
74 76 0 13 -63 74 -76 74 -6 0 -24 -15 -42 -33z"/>
<path d="M2452 5607 c-18 -18 -32 -37 -32 -43 0 -12 62 -74 74 -74 5 0 24 16
43 35 30 31 33 38 21 53 -20 25 -60 62 -67 62 -4 0 -21 -15 -39 -33z"/>
<path d="M2649 5617 c-53 -50 -54 -53 -16 -92 19 -19 38 -35 44 -35 12 0 73
63 73 76 0 10 -62 74 -72 74 -3 0 -16 -10 -29 -23z"/>
<path d="M2825 5605 c-19 -19 -35 -38 -35 -43 0 -11 64 -72 76 -72 13 0 74 63
74 76 0 11 -62 74 -73 74 -4 0 -23 -16 -42 -35z"/>
<path d="M3012 5607 c-18 -18 -32 -37 -32 -43 0 -6 16 -25 35 -44 l35 -34 35
34 c19 19 35 39 35 45 0 11 -61 75 -71 75 -3 0 -19 -15 -37 -33z"/>
<path d="M3196 5601 l-38 -39 36 -36 c20 -20 40 -36 44 -36 12 0 72 64 72 76
0 10 -61 74 -71 74 -3 0 -22 -17 -43 -39z"/>
<path d="M3382 5607 c-18 -18 -32 -37 -32 -43 0 -13 63 -74 76 -74 6 0 25 16
44 35 29 30 32 36 19 52 -21 26 -61 63 -68 63 -4 0 -21 -15 -39 -33z"/>
<path d="M3572 5607 c-18 -18 -32 -37 -32 -43 0 -6 15 -25 33 -42 39 -38 47
-33 68 35 11 38 10 45 -6 63 -24 26 -26 26 -63 -13z"/>
<path d="M5382 5618 c-7 -7 -12 -22 -12 -34 0 -27 27 -94 38 -94 5 0 21 14 37
30 l29 30 -40 40 c-31 32 -42 38 -52 28z"/>
<path d="M5542 5597 c-18 -18 -32 -39 -32 -47 0 -15 31 -48 58 -64 15 -9 82
49 82 70 0 10 -64 74 -73 74 -2 0 -17 -15 -35 -33z"/>
<path d="M5725 5590 l-39 -40 34 -35 c19 -19 39 -35 45 -35 13 0 75 62 75 74
0 8 -65 76 -72 76 -2 0 -22 -18 -43 -40z"/>
<path d="M5912 5597 c-44 -46 -43 -50 24 -109 20 -17 22 -16 58 21 l38 39 -37
41 c-21 23 -40 41 -44 41 -4 0 -21 -15 -39 -33z"/>
<path d="M6095 5590 l-39 -40 34 -35 c19 -19 39 -35 46 -35 7 0 26 14 43 31
17 17 31 36 31 43 0 11 -60 76 -71 76 -3 0 -23 -18 -44 -40z"/>
<path d="M6282 5597 c-18 -18 -32 -37 -32 -43 0 -5 17 -27 38 -47 l38 -37 37
38 c20 21 37 41 37 45 0 9 -69 77 -78 77 -5 0 -22 -15 -40 -33z"/>
<path d="M6472 5597 c-18 -18 -32 -40 -32 -48 0 -15 55 -69 70 -69 16 0 70 55
70 70 0 14 -58 80 -71 80 -3 0 -19 -15 -37 -33z"/>
<path d="M6655 5590 l-39 -40 34 -35 c19 -19 39 -35 46 -35 7 0 26 14 43 31
17 17 31 36 31 43 0 11 -60 76 -71 76 -3 0 -23 -18 -44 -40z"/>
<path d="M6847 5597 c-21 -19 -37 -39 -37 -44 0 -5 17 -26 38 -46 l38 -37 39
40 39 40 -40 41 -41 41 -36 -35z"/>
<path d="M7032 5597 c-18 -18 -32 -38 -32 -44 0 -15 58 -73 74 -73 7 0 27 16
46 35 l34 35 -39 40 c-21 22 -42 40 -45 40 -3 0 -20 -15 -38 -33z"/>
<path d="M7215 5590 l-39 -40 34 -35 c19 -19 39 -35 46 -35 17 0 74 52 74 67
0 10 -64 83 -73 83 -2 0 -21 -18 -42 -40z"/>
<path d="M7403 5594 c-18 -19 -33 -38 -33 -42 0 -12 64 -72 76 -72 6 0 25 16
44 35 l34 35 -39 40 c-21 22 -42 40 -45 39 -3 -1 -20 -16 -37 -35z"/>
<path d="M1612 5517 c-18 -18 -32 -37 -32 -43 0 -13 63 -74 76 -74 6 0 25 16
44 35 l34 35 -39 40 c-21 22 -42 40 -45 40 -3 0 -20 -15 -38 -33z"/>
<path d="M1795 5510 l-39 -40 34 -35 c19 -19 41 -35 49 -35 9 0 30 17 48 37
l33 37 -37 38 c-20 21 -40 38 -43 38 -3 0 -24 -18 -45 -40z"/>
<path d="M1985 5510 l-39 -40 34 -35 c19 -19 40 -35 48 -35 14 0 72 59 72 74
0 7 -66 76 -74 76 -1 0 -20 -18 -41 -40z"/>
<path d="M2172 5517 c-18 -18 -32 -38 -32 -44 0 -15 58 -73 74 -73 7 0 27 16
46 35 l34 35 -39 40 c-21 22 -42 40 -45 40 -3 0 -20 -15 -38 -33z"/>
<path d="M2358 5512 l-43 -41 34 -35 c19 -20 42 -36 51 -36 17 0 70 55 70 74
0 7 -15 27 -34 45 l-34 33 -44 -40z"/>
<path d="M2559 5527 c-55 -52 -55 -55 -19 -92 19 -19 39 -35 45 -35 6 0 26 16
45 35 29 30 32 36 19 52 -14 18 -60 63 -64 63 -1 0 -13 -10 -26 -23z"/>
<path d="M2915 5510 l-39 -40 40 -41 41 -41 37 32 c20 18 36 40 36 49 0 15
-58 81 -71 81 -3 0 -23 -18 -44 -40z"/>
<path d="M3105 5510 l-39 -40 34 -35 c19 -19 39 -35 45 -35 6 0 26 16 45 35
l34 35 -40 40 -40 40 -39 -40z"/>
<path d="M3285 5509 l-40 -40 44 -41 43 -41 41 42 41 41 -39 40 c-21 22 -42
40 -45 40 -3 0 -24 -18 -45 -41z"/>
<path d="M3475 5510 l-39 -40 34 -35 c19 -19 39 -35 45 -35 6 0 26 16 45 35
29 30 32 36 19 52 -13 16 -60 63 -63 63 -1 0 -20 -18 -41 -40z"/>
<path d="M1480 5531 c0 -21 33 -71 47 -71 22 0 14 25 -17 55 -16 16 -30 23
-30 16z"/>
<path d="M2727 5509 c-15 -17 -27 -35 -27 -39 0 -16 55 -70 70 -70 9 0 31 16
50 35 l34 35 -34 35 c-42 43 -58 44 -93 4z"/>
<path d="M5447 5501 c-20 -23 -37 -43 -37 -46 0 -2 10 -13 22 -24 17 -17 19
-23 8 -36 -10 -12 -10 -18 0 -30 7 -8 16 -12 22 -9 5 3 4 12 -3 20 -15 18 -4
31 14 16 10 -9 22 -3 52 28 l39 40 -40 41 -41 40 -36 -40z"/>
<path d="M5818 5501 l-42 -42 42 -42 42 -42 41 41 41 42 -41 42 -41 42 -42
-41z"/>
<path d="M6006 5501 c-38 -39 -38 -39 -20 -63 10 -13 28 -32 40 -41 21 -16 23
-15 58 19 20 19 36 38 36 42 0 5 -17 25 -38 45 l-38 37 -38 -39z"/>
<path d="M6375 5499 l-37 -41 38 -39 c40 -41 39 -41 91 6 35 31 32 41 -34 98
-20 17 -21 16 -58 -24z"/>
<path d="M6750 5500 l-42 -42 41 -42 41 -41 41 42 42 41 -40 43 -40 42 -43
-43z"/>
<path d="M6936 5499 l-38 -41 38 -39 c21 -21 39 -39 41 -39 9 0 73 64 73 74 0
7 -17 29 -38 49 l-39 38 -37 -42z"/>
<path d="M5632 5497 c-18 -18 -32 -37 -32 -41 0 -5 16 -25 36 -44 l36 -35 40
40 40 40 -32 37 c-18 20 -37 36 -44 36 -7 0 -26 -15 -44 -33z"/>
<path d="M6187 5502 c-36 -37 -34 -54 9 -92 l37 -32 41 41 40 41 -34 35 c-41
42 -58 44 -93 7z"/>
<path d="M6562 5497 c-18 -18 -32 -36 -32 -39 0 -4 16 -23 36 -43 30 -32 37
-35 52 -23 25 20 62 60 62 67 0 11 -65 71 -76 71 -6 0 -24 -15 -42 -33z"/>
<path d="M7122 5497 c-18 -18 -32 -35 -32 -39 0 -6 39 -47 63 -67 15 -12 21
-9 52 23 19 21 35 41 35 45 0 11 -64 71 -76 71 -6 0 -24 -15 -42 -33z"/>
<path d="M7306 5494 l-38 -37 41 -41 41 -40 35 34 c19 19 35 40 35 48 0 13
-58 72 -71 72 -3 0 -23 -16 -43 -36z"/>
<path d="M7486 5491 c-16 -16 -25 -34 -22 -40 12 -19 22 -12 45 29 26 47 16
52 -23 11z"/>
<path d="M1553 5453 c-7 -3 -13 -11 -13 -19 0 -17 49 -94 60 -94 4 0 15 9 25
20 19 20 18 22 -21 59 -21 21 -45 37 -51 34z"/>
<path d="M1895 5420 l-39 -40 20 -26 c11 -15 29 -33 41 -41 19 -13 24 -11 57
23 20 20 36 40 36 44 0 3 -17 23 -38 43 l-38 37 -39 -40z"/>
<path d="M2456 5424 c-20 -20 -36 -43 -36 -49 0 -7 16 -27 36 -45 l37 -32 38
38 c42 41 41 49 -9 97 l-30 28 -36 -37z"/>
<path d="M3387 5422 c-20 -21 -37 -43 -37 -49 0 -6 16 -25 36 -43 l37 -32 41
41 41 41 -40 40 -41 40 -37 -38z"/>
<path d="M1700 5415 l-34 -35 34 -35 c39 -41 57 -43 86 -12 38 41 38 47 3 83
-18 19 -38 34 -44 34 -6 0 -26 -16 -45 -35z"/>
<path d="M2077 5422 c-35 -37 -34 -51 7 -91 l34 -33 42 39 42 39 -35 37 c-41
44 -55 46 -90 9z"/>
<path d="M2262 5417 c-18 -18 -32 -35 -32 -39 0 -6 39 -47 62 -66 15 -12 22
-9 53 22 19 19 35 39 35 44 0 11 -64 72 -76 72 -6 0 -24 -15 -42 -33z"/>
<path d="M2632 5413 l-32 -37 37 -38 c40 -41 49 -40 95 9 l27 28 -34 38 c-19
20 -40 37 -47 37 -8 0 -28 -17 -46 -37z"/>
<path d="M2822 5417 c-18 -18 -32 -36 -32 -40 0 -8 66 -77 74 -77 12 0 76 63
76 74 0 14 -62 76 -76 76 -6 0 -24 -15 -42 -33z"/>
<path d="M3012 5421 c-17 -17 -32 -36 -32 -43 0 -8 16 -29 35 -48 l35 -34 41
40 41 41 -32 37 c-18 20 -37 36 -44 36 -6 0 -26 -13 -44 -29z"/>
<path d="M3190 5415 l-34 -35 42 -42 42 -42 35 34 c19 19 35 39 35 45 0 14
-62 75 -76 75 -6 0 -25 -16 -44 -35z"/>
<path d="M3556 5409 c-21 -24 -24 -34 -15 -45 22 -27 31 -18 53 54 10 31 -8
28 -38 -9z"/>
<path d="M5537 5402 l-38 -38 23 -25 c53 -56 55 -56 98 -14 l40 39 -37 38
c-20 21 -40 38 -43 38 -3 0 -23 -17 -43 -38z"/>
<path d="M5722 5407 c-18 -18 -32 -37 -32 -41 0 -11 66 -76 78 -76 11 0 72 64
72 76 0 13 -63 74 -76 74 -6 0 -24 -15 -42 -33z"/>
<path d="M5912 5407 c-18 -18 -32 -37 -32 -43 0 -6 16 -25 35 -44 30 -29 36
-32 52 -19 21 17 63 60 63 66 0 7 -70 73 -78 73 -4 0 -22 -15 -40 -33z"/>
<path d="M6106 5419 c-47 -37 -48 -51 -11 -92 19 -20 38 -37 42 -37 5 0 26 17
46 38 l37 38 -38 37 c-21 20 -40 37 -44 37 -3 0 -17 -9 -32 -21z"/>
<path d="M6296 5419 c-49 -39 -52 -57 -15 -95 18 -19 37 -34 41 -34 12 0 78
65 78 77 0 10 -62 73 -72 73 -3 0 -17 -9 -32 -21z"/>
<path d="M6472 5407 c-18 -18 -32 -37 -32 -43 0 -6 16 -25 35 -44 30 -29 36
-32 52 -19 20 16 63 60 63 65 0 6 -73 74 -80 74 -3 0 -20 -15 -38 -33z"/>
<path d="M6652 5403 c-32 -35 -32 -36 -15 -56 35 -40 53 -57 61 -57 11 0 72
64 72 76 0 13 -63 74 -75 74 -6 0 -25 -17 -43 -37z"/>
<path d="M6842 5407 c-18 -18 -32 -37 -32 -43 0 -13 63 -74 76 -74 11 0 74 62
74 73 0 12 -62 77 -74 77 -7 0 -26 -15 -44 -33z"/>
<path d="M7027 5402 l-37 -38 38 -37 c21 -20 41 -37 45 -37 5 0 23 17 42 37
l34 38 -36 37 c-21 21 -40 38 -43 38 -3 0 -23 -17 -43 -38z"/>
<path d="M7217 5405 c-21 -20 -37 -37 -37 -39 0 -5 43 -49 63 -65 16 -13 22
-10 52 19 19 19 35 39 35 45 0 11 -61 75 -71 75 -3 0 -22 -16 -42 -35z"/>
<path d="M7397 5402 c-36 -37 -37 -39 -19 -55 10 -9 23 -17 28 -17 15 0 57 79
50 95 -8 23 -19 18 -59 -23z"/>
<path d="M1625 5341 c-16 -19 -16 -21 3 -49 40 -56 70 -63 92 -21 8 14 3 25
-26 53 -43 42 -45 42 -69 17z"/>
<path d="M1797 5322 l-37 -38 38 -37 c21 -20 41 -37 44 -37 4 0 23 17 43 37
l36 37 -38 38 c-20 21 -40 38 -43 38 -3 0 -23 -17 -43 -38z"/>
<path d="M1980 5325 c-32 -33 -33 -35 -16 -59 9 -14 28 -33 42 -42 24 -17 26
-16 59 16 19 19 35 39 35 45 0 14 -62 75 -76 75 -6 0 -25 -16 -44 -35z"/>
<path d="M2172 5327 c-18 -18 -32 -37 -32 -43 0 -6 16 -25 35 -44 30 -29 36
-32 52 -19 26 20 63 59 63 66 0 9 -68 73 -78 73 -4 0 -22 -15 -40 -33z"/>
<path d="M2353 5324 c-18 -19 -33 -36 -33 -38 0 -5 43 -49 63 -65 16 -13 22
-10 52 19 19 19 35 39 35 45 0 14 -63 75 -75 74 -6 -1 -25 -16 -42 -35z"/>
<path d="M2543 5325 c-18 -19 -33 -38 -33 -43 0 -10 63 -72 73 -72 12 0 77 62
77 74 0 14 -62 76 -75 76 -6 0 -25 -16 -42 -35z"/>
<path d="M2727 5322 l-37 -38 38 -37 c21 -20 42 -37 48 -37 11 0 74 62 74 73
0 9 -69 77 -78 77 -5 0 -25 -17 -45 -38z"/>
<path d="M2917 5325 c-21 -20 -37 -37 -37 -39 0 -5 43 -49 63 -65 16 -13 22
-10 52 19 19 19 35 39 35 45 0 11 -61 75 -71 75 -3 0 -22 -16 -42 -35z"/>
<path d="M3102 5327 c-18 -18 -32 -37 -32 -43 0 -13 63 -74 76 -74 13 0 74 63
74 76 0 13 -63 74 -76 74 -6 0 -24 -15 -42 -33z"/>
<path d="M3287 5322 l-37 -38 40 -39 40 -39 35 34 c19 19 35 39 35 45 0 11
-61 75 -71 75 -3 0 -22 -17 -42 -38z"/>
<path d="M3472 5327 c-18 -18 -32 -37 -32 -43 0 -15 77 -87 83 -77 2 4 12 32
22 61 16 51 16 54 -1 73 -24 26 -35 24 -72 -14z"/>
<path d="M5472 5338 c-7 -7 -12 -20 -12 -29 0 -15 27 -88 36 -98 5 -5 64 50
64 59 0 6 -68 80 -73 80 -2 0 -8 -5 -15 -12z"/>
<path d="M5632 5317 c-18 -18 -32 -39 -32 -46 0 -6 14 -25 32 -41 17 -16 29
-33 25 -37 -4 -4 -21 8 -37 25 -16 18 -35 32 -43 32 -21 0 -67 -53 -67 -78 0
-25 29 -102 39 -102 3 0 51 45 105 100 l99 101 -38 39 c-22 22 -42 40 -45 40
-3 0 -20 -15 -38 -33z"/>
<path d="M6016 5329 c-49 -39 -52 -57 -15 -95 18 -19 38 -34 44 -34 12 0 75
61 75 73 0 8 -66 77 -73 77 -3 0 -16 -9 -31 -21z"/>
<path d="M6189 5313 l-39 -38 34 -37 c19 -21 40 -38 47 -38 6 0 27 16 46 36
l34 37 -37 38 c-21 22 -40 39 -41 39 -2 0 -22 -17 -44 -37z"/>
<path d="M6376 5311 l-38 -38 32 -37 c18 -20 38 -36 45 -36 6 0 29 16 49 36
l37 36 -28 30 c-48 50 -56 51 -97 9z"/>
<path d="M6570 5322 c-44 -46 -45 -51 -9 -88 18 -19 38 -34 44 -34 12 0 75 61
75 72 0 9 -71 78 -79 78 -3 -1 -17 -13 -31 -28z"/>
<path d="M6750 5314 l-41 -39 42 -43 41 -44 30 29 c51 48 51 56 8 98 l-38 37
-42 -38z"/>
<path d="M6934 5309 l-38 -39 40 -41 41 -41 42 43 41 43 -28 29 c-47 50 -55
50 -98 6z"/>
<path d="M7307 5312 l-38 -38 27 -29 27 -29 33 39 c19 22 34 45 34 51 0 10
-31 44 -41 44 -3 0 -22 -17 -42 -38z"/>
<path d="M5811 5306 l-32 -33 34 -37 c19 -20 38 -36 43 -36 15 0 74 57 74 71
0 19 -51 69 -70 69 -9 0 -31 -15 -49 -34z"/>
<path d="M7121 5309 c-17 -17 -31 -34 -31 -38 0 -11 64 -71 76 -71 6 0 25 16
44 35 l34 35 -34 35 c-19 19 -39 35 -46 35 -7 0 -26 -14 -43 -31z"/>
<path d="M1716 5241 l-27 -28 39 -43 39 -44 27 29 c32 34 32 36 3 66 -47 50
-51 51 -81 20z"/>
<path d="M1896 5240 c-20 -18 -36 -37 -36 -44 0 -14 62 -76 76 -76 6 0 25 16
44 35 l34 35 -40 41 -41 41 -37 -32z"/>
<path d="M2082 5237 c-18 -18 -32 -40 -32 -48 0 -8 15 -29 33 -47 l33 -32 43
41 43 41 -38 39 c-21 22 -41 39 -44 39 -3 0 -20 -15 -38 -33z"/>
<path d="M2263 5234 c-18 -19 -33 -38 -33 -42 0 -12 64 -72 77 -72 15 0 73 58
73 72 0 13 -66 78 -77 77 -4 -1 -23 -16 -40 -35z"/>
<path d="M2456 5237 c-20 -19 -36 -40 -36 -46 0 -7 17 -27 37 -46 l38 -34 28
27 c49 47 50 55 8 96 l-38 37 -37 -34z"/>
<path d="M2636 5231 l-38 -38 32 -37 c18 -20 39 -36 48 -36 22 0 72 50 72 71
0 13 -61 79 -73 79 -2 0 -20 -17 -41 -39z"/>
<path d="M2827 5235 c-21 -20 -37 -39 -37 -44 0 -11 64 -71 76 -71 11 0 74 62
74 73 0 6 -68 77 -74 77 -2 0 -19 -16 -39 -35z"/>
<path d="M3012 5237 c-18 -18 -32 -39 -32 -46 0 -14 59 -71 74 -71 16 0 66 53
66 70 0 14 -58 80 -71 80 -3 0 -19 -15 -37 -33z"/>
<path d="M3195 5230 l-39 -40 34 -35 c19 -19 39 -35 45 -35 14 0 75 62 75 76
0 10 -61 74 -71 74 -3 0 -23 -18 -44 -40z"/>
<path d="M3382 5237 c-18 -18 -32 -37 -32 -43 0 -5 24 -34 54 -63 l54 -54 26
42 c14 22 26 46 26 53 0 12 -79 98 -90 98 -3 0 -20 -15 -38 -33z"/>
<path d="M6845 5220 c-34 -35 -37 -41 -24 -57 16 -20 60 -63 65 -63 6 0 74 73
74 80 0 3 -17 23 -38 43 l-38 37 -39 -40z"/>
<path d="M5722 5217 c-18 -18 -32 -36 -32 -40 0 -7 68 -77 75 -77 8 0 75 70
75 78 0 12 -64 72 -76 72 -6 0 -24 -15 -42 -33z"/>
<path d="M5901 5216 l-32 -33 41 -44 41 -44 41 43 40 44 -33 34 c-18 19 -40
34 -49 34 -9 0 -31 -15 -49 -34z"/>
<path d="M6091 5216 l-33 -34 40 -43 40 -43 42 41 42 42 -35 36 c-19 19 -41
35 -49 35 -8 0 -29 -15 -47 -34z"/>
<path d="M6280 5215 c-29 -30 -32 -36 -19 -52 16 -20 60 -63 65 -63 7 0 74 71
74 78 0 12 -64 72 -76 72 -6 0 -25 -16 -44 -35z"/>
<path d="M6470 5220 c-17 -17 -30 -36 -30 -43 0 -7 16 -29 36 -48 l35 -34 41
43 40 44 -33 34 c-18 19 -39 34 -46 34 -8 0 -27 -14 -43 -30z"/>
<path d="M6650 5215 l-34 -35 42 -42 42 -42 35 34 c19 19 35 39 35 46 0 7 -14
26 -31 43 -17 17 -36 31 -43 31 -7 0 -27 -16 -46 -35z"/>
<path d="M7031 5219 c-17 -17 -31 -36 -31 -43 0 -7 16 -27 35 -46 l35 -34 42
42 42 42 -34 35 c-19 19 -39 35 -46 35 -7 0 -26 -14 -43 -31z"/>
<path d="M7210 5215 l-34 -35 29 -30 c16 -16 32 -30 35 -30 4 0 21 18 39 41
l33 40 -23 25 c-30 32 -39 31 -79 -11z"/>
<path d="M1986 5139 l-38 -41 38 -39 c41 -42 37 -43 96 14 25 23 23 28 -20 70
l-39 38 -37 -42z"/>
<path d="M2173 5145 c-18 -18 -33 -39 -33 -47 0 -8 16 -29 35 -48 l35 -34 41
40 40 41 -26 32 c-42 49 -55 52 -92 16z"/>
<path d="M2357 5140 l-41 -42 43 -40 43 -40 34 33 c19 18 34 39 34 47 0 8 -16
30 -35 49 l-36 35 -42 -42z"/>
<path d="M2547 5142 c-43 -44 -43 -46 -19 -69 60 -58 56 -57 96 -23 20 18 36
37 36 44 0 7 -17 29 -38 49 l-38 37 -37 -38z"/>
<path d="M2915 5140 l-39 -40 42 -42 42 -42 35 34 c19 19 35 40 35 47 0 10
-64 83 -73 83 -2 0 -21 -18 -42 -40z"/>
<path d="M3288 5142 l-43 -41 61 -61 61 -62 36 39 c20 21 37 43 37 48 0 6 -24
35 -54 64 l-54 53 -44 -40z"/>
<path d="M1802 5147 c-29 -31 -28 -37 11 -75 39 -38 47 -39 75 -9 29 31 28 40
-9 76 -37 37 -49 38 -77 8z"/>
<path d="M2731 5139 c-17 -17 -31 -36 -31 -43 0 -7 16 -27 35 -46 l35 -34 42
42 42 42 -34 35 c-19 19 -39 35 -46 35 -7 0 -26 -14 -43 -31z"/>
<path d="M3102 5137 c-18 -18 -32 -36 -32 -40 0 -3 16 -23 36 -43 l37 -36 40
41 41 41 -34 35 c-19 19 -39 35 -45 35 -6 0 -25 -15 -43 -33z"/>
<path d="M5611 5105 l-53 -55 29 -34 c15 -19 33 -37 40 -40 10 -4 123 96 123
109 0 8 -70 75 -79 75 -4 0 -32 -25 -60 -55z"/>
<path d="M5812 5127 c-18 -18 -32 -36 -32 -40 0 -9 69 -77 78 -77 12 0 72 64
72 76 0 13 -63 74 -76 74 -6 0 -24 -15 -42 -33z"/>
<path d="M6002 5127 c-18 -18 -32 -36 -32 -40 0 -10 64 -77 73 -77 12 0 77 62
77 74 0 14 -62 76 -76 76 -6 0 -24 -15 -42 -33z"/>
<path d="M6191 5128 c-17 -18 -31 -38 -31 -44 0 -11 62 -74 73 -74 7 0 77 68
77 76 0 10 -67 74 -78 74 -6 0 -25 -15 -41 -32z"/>
<path d="M6374 5124 c-29 -31 -32 -39 -22 -53 20 -24 60 -61 67 -61 11 0 71
65 71 76 0 12 -62 74 -74 74 -4 0 -23 -16 -42 -36z"/>
<path d="M6562 5127 c-18 -18 -32 -37 -32 -43 0 -13 63 -74 76 -74 13 0 74 63
74 76 0 13 -63 74 -76 74 -6 0 -24 -15 -42 -33z"/>
<path d="M6747 5122 l-37 -38 38 -37 c21 -20 40 -37 43 -37 7 0 48 38 66 61
11 13 7 22 -23 52 -19 21 -38 37 -42 37 -5 0 -25 -17 -45 -38z"/>
<path d="M6949 5137 c-52 -49 -52 -51 -13 -90 19 -21 38 -37 43 -37 11 0 71
64 71 76 0 10 -62 74 -72 74 -3 0 -16 -10 -29 -23z"/>
<path d="M7122 5127 c-38 -39 -39 -47 -9 -75 31 -29 37 -28 75 11 38 39 39 47
9 75 -31 29 -37 28 -75 -11z"/>
<path d="M1906 5059 c-34 -27 -33 -38 7 -77 36 -35 52 -35 79 2 17 23 16 25
-18 60 -19 20 -36 36 -38 36 -2 0 -15 -9 -30 -21z"/>
<path d="M2073 5044 l-36 -36 41 -41 42 -41 40 39 40 39 -37 38 c-20 21 -41
38 -45 38 -5 0 -25 -16 -45 -36z"/>
<path d="M2261 5045 c-17 -20 -31 -39 -31 -43 0 -12 64 -72 76 -72 13 0 74 63
74 76 0 13 -63 74 -77 74 -6 0 -25 -16 -42 -35z"/>
<path d="M2452 5047 c-18 -18 -32 -37 -32 -43 0 -6 16 -25 35 -44 l35 -34 26
20 c15 11 33 29 41 41 14 20 12 25 -21 57 -19 20 -39 36 -44 36 -4 0 -22 -15
-40 -33z"/>
<path d="M2636 5044 c-34 -35 -35 -37 -19 -58 9 -12 28 -30 41 -40 24 -18 24
-18 63 20 l39 38 -37 38 c-20 21 -40 38 -45 38 -4 0 -23 -16 -42 -36z"/>
<path d="M2822 5047 c-18 -18 -32 -37 -32 -43 0 -13 63 -74 76 -74 13 0 74 63
74 76 0 13 -63 74 -76 74 -6 0 -24 -15 -42 -33z"/>
<path d="M3007 5042 l-37 -38 40 -39 40 -39 41 40 41 41 -38 37 c-20 20 -40
36 -44 36 -3 0 -23 -17 -43 -38z"/>
<path d="M3192 5047 c-18 -18 -32 -36 -32 -40 0 -4 25 -31 56 -62 l56 -55 28
23 c57 46 57 54 -1 113 -29 30 -58 54 -64 54 -6 0 -25 -15 -43 -33z"/>
<path d="M5700 5014 l-53 -56 39 -39 c21 -21 40 -39 42 -39 7 0 112 103 112
111 0 11 -68 79 -79 79 -4 0 -32 -25 -61 -56z"/>
<path d="M5912 5037 c-18 -18 -32 -37 -32 -43 0 -13 63 -74 76 -74 6 0 25 16
44 35 l34 35 -39 40 c-21 22 -42 40 -45 40 -3 0 -20 -15 -38 -33z"/>
<path d="M6096 5031 l-39 -39 35 -36 c19 -20 41 -36 49 -36 17 0 69 56 69 75
0 10 -63 75 -73 75 -2 0 -20 -18 -41 -39z"/>
<path d="M6299 5047 c-55 -52 -55 -55 -19 -92 19 -19 39 -35 45 -35 12 0 75
61 75 73 0 9 -64 77 -72 77 -3 0 -16 -10 -29 -23z"/>
<path d="M6472 5037 c-18 -18 -32 -38 -32 -44 0 -15 58 -73 74 -73 7 0 27 16
46 35 l34 35 -39 40 c-21 22 -42 40 -45 40 -3 0 -20 -15 -38 -33z"/>
<path d="M6655 5030 l-39 -40 34 -35 c19 -19 39 -35 46 -35 16 0 74 58 74 74
0 11 -60 76 -71 76 -3 0 -23 -18 -44 -40z"/>
<path d="M6859 5047 c-55 -52 -55 -55 -19 -92 19 -19 39 -35 45 -35 6 0 26 16
45 35 29 30 32 36 19 52 -14 18 -60 63 -64 63 -1 0 -13 -10 -26 -23z"/>
<path d="M7032 5037 c-18 -18 -32 -38 -32 -45 0 -11 39 -52 49 -52 14 0 71 57
71 71 0 14 -39 59 -51 59 -3 0 -19 -15 -37 -33z"/>
<path d="M1996 4967 c-28 -26 -26 -32 27 -71 36 -28 38 -28 57 -11 11 10 20
21 20 25 0 7 -68 80 -75 80 -2 0 -15 -10 -29 -23z"/>
<path d="M2172 4957 c-18 -18 -32 -37 -32 -43 0 -13 63 -74 76 -74 6 0 25 16
44 35 l34 35 -30 31 c-48 50 -57 52 -92 16z"/>
<path d="M2358 4951 l-43 -41 43 -41 44 -41 34 33 c19 18 34 40 34 49 0 9 -15
31 -34 49 l-34 33 -44 -41z"/>
<path d="M2559 4967 c-55 -52 -55 -55 -19 -92 19 -19 39 -35 45 -35 12 0 75
61 75 73 0 8 -66 77 -73 77 -2 0 -15 -10 -28 -23z"/>
<path d="M2727 4952 l-36 -37 34 -38 c19 -20 40 -37 48 -37 7 0 28 16 47 35
l34 35 -39 40 c-21 22 -42 40 -45 40 -3 0 -22 -17 -43 -38z"/>
<path d="M2916 4951 l-38 -38 32 -37 c18 -20 37 -36 44 -36 14 0 76 62 76 76
0 10 -61 74 -71 74 -3 0 -22 -17 -43 -39z"/>
<path d="M3102 4957 c-18 -18 -32 -37 -32 -43 0 -11 82 -94 93 -94 12 0 87 52
87 61 0 9 -100 109 -109 109 -4 0 -21 -15 -39 -33z"/>
<path d="M6005 4940 l-39 -40 41 -42 41 -41 36 36 c20 20 36 40 36 45 0 4 -17
25 -38 45 l-38 37 -39 -40z"/>
<path d="M6375 4939 l-37 -41 33 -34 c18 -19 40 -34 48 -34 19 0 71 50 71 68
0 12 -64 82 -75 82 -1 0 -19 -18 -40 -41z"/>
<path d="M6567 4942 c-20 -21 -37 -41 -37 -44 0 -4 16 -23 37 -42 30 -30 39
-34 52 -23 24 19 61 59 61 66 0 4 -17 24 -38 44 l-38 37 -37 -38z"/>
<path d="M6749 4939 l-42 -42 42 -40 43 -39 38 37 c43 42 43 50 -8 98 l-30 29
-43 -43z"/>
<path d="M6935 4940 c-38 -39 -38 -40 -20 -60 24 -27 33 -25 80 15 l40 34 -29
26 c-16 14 -30 25 -31 25 0 0 -18 -18 -40 -40z"/>
<path d="M5797 4922 c-26 -26 -47 -51 -47 -55 0 -10 77 -57 93 -57 16 0 87 72
87 88 0 15 -60 72 -75 72 -6 0 -32 -22 -58 -48z"/>
<path d="M6184 4933 l-32 -36 33 -34 c17 -18 39 -33 47 -33 8 0 29 15 47 34
l33 34 -32 36 c-18 20 -39 36 -49 35 -9 0 -30 -16 -47 -36z"/>
<path d="M2090 4871 c-8 -17 -4 -23 34 -45 50 -29 66 -32 66 -13 0 18 -56 77
-74 77 -8 0 -20 -9 -26 -19z"/>
<path d="M2260 4855 l-34 -35 42 -42 42 -42 35 34 c19 19 35 39 35 45 0 14
-62 75 -76 75 -6 0 -25 -16 -44 -35z"/>
<path d="M2448 4857 c-16 -17 -28 -37 -28 -43 0 -7 16 -26 36 -44 l36 -32 34
33 c41 40 42 54 7 91 -34 36 -51 35 -85 -5z"/>
<path d="M2630 4855 l-34 -35 41 -42 42 -42 41 42 42 41 -35 36 c-19 19 -41
35 -49 35 -8 0 -29 -16 -48 -35z"/>
<path d="M2820 4855 c-36 -37 -36 -40 19 -93 l25 -23 40 40 40 41 -34 35 c-19
19 -39 35 -45 35 -6 0 -26 -16 -45 -35z"/>
<path d="M3001 4856 l-33 -34 33 -36 34 -37 40 20 c75 38 74 36 30 81 -21 22
-46 40 -55 40 -9 0 -31 -15 -49 -34z"/>
<path d="M6845 4850 c-29 -30 -36 -43 -28 -51 9 -9 23 -5 57 15 51 30 54 36
28 59 -17 16 -21 14 -57 -23z"/>
<path d="M5901 4836 l-44 -44 51 -26 c28 -14 54 -26 56 -26 7 0 66 58 66 64 0
7 -72 76 -79 76 -4 0 -26 -20 -50 -44z"/>
<path d="M6110 4861 c-8 -10 -23 -26 -32 -37 -17 -20 -16 -22 21 -58 l39 -38
41 38 42 37 -38 39 c-41 42 -51 45 -73 19z"/>
<path d="M6282 4847 c-18 -18 -32 -36 -32 -40 0 -10 67 -77 78 -77 11 0 72 64
72 76 0 13 -63 74 -76 74 -6 0 -24 -15 -42 -33z"/>
<path d="M6473 4850 c-18 -16 -33 -36 -33 -43 0 -7 16 -28 35 -47 30 -29 36
-32 52 -19 19 15 63 60 63 65 0 7 -69 74 -76 74 -5 0 -24 -14 -41 -30z"/>
<path d="M6653 4846 c-18 -18 -33 -35 -33 -38 0 -6 40 -48 63 -67 16 -13 22
-10 52 19 19 19 35 39 35 45 0 14 -62 75 -75 74 -6 0 -25 -15 -42 -33z"/>
<path d="M2200 4791 c0 -5 7 -12 16 -15 22 -9 24 -8 18 9 -7 16 -34 21 -34 6z"/>
<path d="M2361 4771 c-13 -16 -23 -33 -24 -37 0 -10 67 -32 101 -33 37 -1 38
27 1 65 -18 19 -38 34 -43 34 -6 -1 -22 -14 -35 -29z"/>
<path d="M2542 4767 c-37 -38 -39 -48 -13 -71 38 -35 131 -14 131 29 0 14 -62
75 -76 75 -6 0 -24 -15 -42 -33z"/>
<path d="M2732 4767 c-37 -38 -39 -48 -14 -70 28 -25 84 -22 111 7 l22 24 -36
36 c-19 20 -39 36 -43 36 -5 0 -22 -15 -40 -33z"/>
<path d="M2911 4766 c-51 -53 -23 -72 59 -40 22 9 40 19 40 23 0 11 -45 51
-56 51 -6 0 -25 -15 -43 -34z"/>
<path d="M6017 4764 c-15 -14 -25 -29 -22 -33 4 -7 94 -41 108 -41 16 0 12 32
-6 52 -46 48 -51 49 -80 22z"/>
<path d="M6192 4757 c-18 -18 -32 -38 -32 -43 0 -18 35 -43 67 -50 26 -5 37
-1 59 21 l27 27 -39 39 c-21 21 -41 39 -44 39 -3 0 -20 -15 -38 -33z"/>
<path d="M6377 4755 c-21 -20 -37 -38 -37 -40 0 -2 11 -15 24 -29 30 -33 75
-34 104 -3 12 13 22 28 22 33 0 10 -62 74 -71 74 -3 0 -22 -16 -42 -35z"/>
<path d="M6563 4756 c-36 -36 -40 -48 -20 -65 15 -12 127 15 127 31 0 10 -61
68 -70 67 -3 0 -20 -15 -37 -33z"/>
<path d="M6769 4774 c-12 -14 -11 -16 5 -13 11 2 21 10 24 17 5 17 -13 15 -29
-4z"/>
<path d="M2482 4699 c2 -7 10 -15 17 -17 8 -3 12 1 9 9 -2 7 -10 15 -17 17 -8
3 -12 -1 -9 -9z"/>
<path d="M2661 4697 c-6 -6 -11 -15 -11 -20 0 -12 43 -4 47 9 5 16 -22 25 -36
11z"/>
<path d="M6308 4686 c-21 -15 -13 -26 19 -26 25 0 30 12 10 28 -8 7 -17 7 -29
-2z"/>
<path d="M6505 4690 c-3 -5 1 -10 10 -10 9 0 13 5 10 10 -3 6 -8 10 -10 10 -2
0 -7 -4 -10 -10z"/>
<path d="M3492 4598 c-11 -14 -402 -1182 -402 -1201 0 -6 35 23 78 65 198 196
349 286 565 337 49 12 110 22 135 22 26 1 60 4 77 8 34 7 29 -13 60 265 l18
158 -179 179 -180 179 -81 0 c-52 0 -84 -4 -91 -12z"/>
<path d="M3816 4602 c-5 -9 211 -229 218 -221 7 7 25 212 20 221 -7 11 -231
11 -238 0z"/>
<path d="M4221 4588 c-4 -13 -14 -77 -20 -143 -7 -66 -14 -142 -17 -170 l-5
-50 165 -165 166 -165 164 165 163 165 -13 120 c-23 224 -27 250 -38 257 -6 4
-134 8 -284 8 l-272 0 -9 -22z"/>
<path d="M4965 4604 c-10 -4 10 -212 21 -223 7 -8 224 212 218 221 -5 8 -220
10 -239 2z"/>
<path d="M5178 4433 l-180 -178 6 -90 c4 -49 11 -119 16 -155 5 -36 12 -91 15
-122 l6 -57 67 -6 c286 -26 522 -148 743 -383 84 -88 89 -91 77 -44 -6 20 -99
300 -207 622 l-196 585 -84 3 -84 3 -179 -178z"/>
<path d="M4160 4078 c-1 -7 -7 -69 -14 -138 -15 -138 -16 -133 49 -151 22 -6
60 -22 84 -35 24 -13 49 -24 55 -24 14 0 96 82 96 96 0 11 -251 264 -263 264
-4 0 -7 -6 -7 -12z"/>
<path d="M4707 3962 c-70 -70 -127 -132 -127 -138 0 -5 20 -29 44 -53 l43 -43
50 25 c27 14 75 33 106 42 66 19 65 16 46 164 -15 114 -18 131 -27 131 -4 0
-65 -57 -135 -128z"/>
<path d="M4457 3712 l-47 -48 45 -44 45 -44 45 49 c25 27 45 50 45 50 0 1 -19
20 -43 43 l-43 42 -47 -48z"/>
<path d="M4442 2880 c-29 -33 -93 -92 -143 -131 l-90 -73 150 -150 151 -151
147 147 146 147 -90 69 c-49 38 -116 99 -150 136 -33 36 -62 66 -64 66 -2 0
-28 -27 -57 -60z"/>
</g>
</svg>
